<svg width="213" height="208" viewBox="0 0 213 208" fill="none" xmlns="http://www.w3.org/2000/svg">
    <circle cx="166.5" cy="103.5" r="44.5" stroke="white" stroke-width="3"/>
    <path fill-rule="evenodd" clip-rule="evenodd" d="M191.644 88.9632C192.426 88.3794 193.405 88.574 193.796 89.3525C194.188 90.1309 193.992 91.104 193.405 91.4932C193.381 91.5051 193.329 91.5354 193.25 91.5811C192.046 92.2819 184.574 96.6285 175.205 94.8017C172.269 94.4124 169.138 94.8017 166.202 95.9694L174.813 104.143C175.792 102.197 176.183 100.056 176.183 97.9155C176.183 97.137 176.966 96.3586 177.749 96.3586C178.532 96.3586 179.314 97.137 179.314 97.9155C179.314 102.975 177.162 108.035 173.443 111.539C169.921 114.652 165.615 116.209 161.114 116.015C154.069 115.625 149.568 115.82 146.828 116.404L154.069 123.215C154.265 122.048 154.46 120.491 154.46 118.545C154.46 117.572 155.243 116.988 156.026 116.988C157.005 116.988 157.592 117.766 157.592 118.545C157.2 125.356 155.83 129.248 153.286 130.805C153.09 131 152.699 131 152.503 131C151.916 131 151.329 130.805 150.938 130.222C150.546 129.443 150.742 128.47 151.525 128.081C151.916 127.886 152.503 127.497 152.895 126.524L143.11 117.182C142.523 117.572 142.131 117.961 141.936 118.35C141.544 118.934 141.153 119.129 140.566 119.129C140.37 119.129 139.979 119.129 139.783 118.934C139 118.545 138.804 117.572 139.196 116.793C139.979 115.625 141.153 114.847 142.914 114.069H143.11C146.632 112.706 152.503 112.317 161.114 112.706C163.071 112.901 164.833 112.512 166.398 111.928L158.179 103.949C157.592 105.7 157.396 107.452 157.396 109.203V109.982C157.396 110.76 156.613 111.539 155.83 111.539C155.048 111.539 154.265 110.76 154.265 109.982V109.203C154.069 106.284 154.852 103.365 156.222 100.835C156.222 100.737 156.271 100.689 156.32 100.64C156.368 100.591 156.417 100.543 156.417 100.445C156.613 100.445 156.613 100.251 156.613 100.251C157.592 98.8886 158.766 97.3317 160.136 96.164C161.114 95.3855 161.897 94.8017 162.876 94.2178L163.071 94.0232C166.79 91.6878 171.486 90.9094 175.792 91.6878C179.314 92.4663 182.641 92.0771 185.186 91.4932L178.923 85.6548C178.532 86.8225 178.336 87.9902 178.336 89.3525C178.336 90.1309 177.749 90.9094 176.966 90.7148C175.988 90.7148 175.4 89.9363 175.4 89.1578C175.792 82.1517 178.923 77.2863 179.119 77.0917C179.51 76.5079 180.489 76.3133 181.271 76.7025C181.859 77.0917 182.054 78.0648 181.663 78.8433C181.467 79.0379 180.684 80.2056 179.902 82.3463L188.512 90.5201C190.469 89.7417 191.644 88.9632 191.644 88.9632ZM171.095 109.009C171.878 108.23 172.465 107.452 173.052 106.673L163.267 97.3317C163.071 97.5263 162.876 97.6722 162.68 97.8182C162.484 97.9642 162.288 98.1101 162.093 98.3047C161.31 99.0832 160.331 100.056 159.744 101.029L169.529 110.371C170.117 109.982 170.704 109.398 171.095 109.009Z" fill="white"/>
    <circle cx="46.5" cy="103.5" r="44.5" stroke="white" stroke-width="3"/>
    <path fill-rule="evenodd" clip-rule="evenodd" d="M71.6437 88.9632C72.4265 88.3794 73.405 88.574 73.7964 89.3525C74.1878 90.1309 73.9921 91.104 73.405 91.4932C73.381 91.5051 73.329 91.5354 73.2503 91.5811C72.0456 92.2819 64.5736 96.6285 55.2047 94.8017C52.2692 94.4124 49.138 94.8017 46.2025 95.9694L54.8133 104.143C55.7919 102.197 56.1833 100.056 56.1833 97.9155C56.1833 97.137 56.9661 96.3586 57.7489 96.3586C58.5317 96.3586 59.3145 97.137 59.3145 97.9155C59.3145 102.975 57.1618 108.035 53.4434 111.539C49.9208 114.652 45.6154 116.209 41.1142 116.015C34.069 115.625 29.5679 115.82 26.8281 116.404L34.069 123.215C34.2647 122.048 34.4604 120.491 34.4604 118.545C34.4604 117.572 35.2432 116.988 36.026 116.988C37.0045 116.988 37.5916 117.766 37.5916 118.545C37.2002 125.356 35.8303 129.248 33.2862 130.805C33.0905 131 32.6991 131 32.5034 131C31.9163 131 31.3292 130.805 30.9378 130.222C30.5464 129.443 30.7421 128.47 31.5249 128.081C31.9163 127.886 32.5034 127.497 32.8948 126.524L23.1097 117.182C22.5226 117.572 22.1312 117.961 21.9355 118.35C21.5441 118.934 21.1527 119.129 20.5656 119.129C20.3699 119.129 19.9785 119.129 19.7828 118.934C19 118.545 18.8043 117.572 19.1957 116.793C19.9785 115.625 21.1527 114.847 22.914 114.069H23.1097C26.6324 112.706 32.5034 112.317 41.1142 112.706C43.0713 112.901 44.8326 112.512 46.3982 111.928L38.1787 103.949C37.5916 105.7 37.3959 107.452 37.3959 109.203V109.982C37.3959 110.76 36.6131 111.539 35.8303 111.539C35.0475 111.539 34.2647 110.76 34.2647 109.982V109.203C34.069 106.284 34.8518 103.365 36.2217 100.835C36.2217 100.737 36.2706 100.689 36.3196 100.64C36.3685 100.591 36.4174 100.543 36.4174 100.445C36.6131 100.445 36.6131 100.251 36.6131 100.251C37.5916 98.8886 38.7658 97.3317 40.1357 96.164C41.1142 95.3855 41.8971 94.8017 42.8756 94.2178L43.0713 94.0232C46.7896 91.6878 51.4864 90.9094 55.7918 91.6878C59.3145 92.4663 62.6414 92.0771 65.1855 91.4932L58.9231 85.6548C58.5317 86.8225 58.336 87.9902 58.336 89.3525C58.336 90.1309 57.7489 90.9094 56.9661 90.7148C55.9875 90.7148 55.4004 89.9363 55.4004 89.1578C55.7918 82.1517 58.9231 77.2863 59.1188 77.0917C59.5102 76.5079 60.4887 76.3133 61.2715 76.7025C61.8586 77.0917 62.0543 78.0648 61.6629 78.8433C61.4672 79.0379 60.6844 80.2056 59.9016 82.3463L68.5124 90.5201C70.4694 89.7417 71.6437 88.9632 71.6437 88.9632ZM51.095 109.009C51.8778 108.23 52.4649 107.452 53.052 106.673L43.267 97.3317C43.0713 97.5263 42.8756 97.6722 42.6799 97.8182C42.4842 97.9642 42.2885 98.1101 42.0928 98.3047C41.3099 99.0832 40.3314 100.056 39.7443 101.029L49.5294 110.371C50.1165 109.982 50.7036 109.398 51.095 109.009Z" fill="white"/>
    <circle cx="46.5" cy="200.5" r="6.5" fill="white" stroke="white"/>
    <path d="M47.2497 148.124L46.5 205.5" stroke="white" stroke-width="1.5" stroke-linecap="square" stroke-dasharray="10"/>
    <circle cx="167.5" cy="7.5" r="6.5" fill="white" stroke="white"/>
    <path d="M167.184 9.81445L166.316 69.3165" stroke="white" stroke-width="1.5" stroke-linecap="square" stroke-dasharray="10"/>
</svg>
