<svg width="234" height="239" viewBox="0 0 234 239" fill="none" xmlns="http://www.w3.org/2000/svg">
    <g clip-path="url(#clip0)">
        <mask id="mask0" mask-type="alpha" maskUnits="userSpaceOnUse" x="112" y="143" width="96" height="95">
            <path fill-rule="evenodd" clip-rule="evenodd" d="M156.973 237.032L207.095 187.168L162.987 143.286L112.864 193.15L156.973 237.032Z" fill="white"/>
        </mask>
        <g mask="url(#mask0)">
            <path fill-rule="evenodd" clip-rule="evenodd" d="M206.125 188.133C194.668 199.501 179.454 205.845 163.276 205.998C147.983 206.142 133.453 200.741 122.067 190.744C122.058 190.736 122.045 190.743 122.046 190.754L122.872 199.896C122.935 200.602 122.411 201.227 121.7 201.29C120.99 201.353 120.363 200.832 120.3 200.126L119.173 187.616C119.096 186.771 119.757 186.039 120.611 186.025L133.233 185.81C133.945 185.798 134.532 186.362 134.545 187.071C134.557 187.781 133.989 188.366 133.275 188.378L123.498 188.542C123.486 188.542 123.48 188.558 123.489 188.565C134.439 198.304 148.473 203.57 163.252 203.431C178.778 203.284 193.376 197.187 204.359 186.261C204.876 185.747 205.722 185.76 206.222 186.301C206.699 186.817 206.624 187.638 206.125 188.133Z" fill="white"/>
        </g>
        <ellipse rx="31" ry="31.5" transform="matrix(1 0 0 -1 118 114.76)" stroke="white" stroke-width="3"/>
        <ellipse rx="3.968" ry="4" transform="matrix(1 0 0 -1 117.752 136.26)" fill="white"/>
        <ellipse rx="3.968" ry="4" transform="matrix(1 0 0 -1 117.752 155.76)" fill="white"/>
        <ellipse rx="31" ry="31.5" transform="matrix(1 0 0 -1 202 114.76)" stroke="white" stroke-width="3"/>
        <ellipse rx="3.968" ry="4" transform="matrix(1 0 0 -1 201.752 136.26)" fill="white"/>
        <ellipse rx="3.968" ry="4" transform="matrix(1 0 0 -1 201.752 155.76)" fill="white"/>
        <mask id="mask1" mask-type="alpha" maskUnits="userSpaceOnUse" x="17" y="0" width="104" height="104">
            <path fill-rule="evenodd" clip-rule="evenodd" d="M62.9263 0.159912L120.792 52.5315L75.1132 103.525L17.247 51.1534L62.9263 0.159912Z" fill="white"/>
        </mask>
        <g mask="url(#mask1)">
            <path fill-rule="evenodd" clip-rule="evenodd" d="M119.672 51.5175C106.447 39.5794 89.408 33.4079 71.6826 34.139C54.9276 34.8301 39.3397 41.6118 27.4687 53.3039C27.4596 53.3134 27.4442 53.3065 27.4448 53.2937L27.8031 43.1357C27.8306 42.3505 27.2188 41.6886 26.4369 41.6581C25.6557 41.6282 25.0001 42.2394 24.9732 43.0239L24.4862 56.9244C24.4527 57.8639 25.2207 58.6366 26.1558 58.6054L39.9904 58.1406C40.7712 58.1141 41.3804 57.4576 41.3518 56.6726C41.3233 55.8869 40.6659 55.271 39.8837 55.2974L29.1669 55.6599C29.1539 55.6602 29.147 55.6438 29.1559 55.6346C40.5652 44.2527 55.6181 37.6474 71.8099 36.9797C88.8201 36.2784 105.171 42.2114 117.85 53.6866C118.447 54.2268 119.373 54.1651 119.888 53.5392C120.379 52.9419 120.248 52.0373 119.672 51.5175Z" fill="white"/>
        </g>
        <ellipse rx="31" ry="31.5" transform="matrix(1 0 0 -1 33 114.76)" stroke="white" stroke-width="3"/>
        <ellipse rx="3.968" ry="4" transform="matrix(1 0 0 -1 32.752 136.26)" fill="white"/>
        <ellipse rx="3.968" ry="4" transform="matrix(1 0 0 -1 32.752 155.76)" fill="white"/>
    </g>
    <defs>
        <clipPath id="clip0">
            <rect width="234" height="239" fill="white"/>
        </clipPath>
    </defs>
</svg>
