<?xml version="1.0" encoding="UTF-8"?>
<svg width="32px" height="30px" viewBox="0 0 32 30" version="1.1" xmlns="http://www.w3.org/2000/svg" xmlns:xlink="http://www.w3.org/1999/xlink">
    <!-- Generator: Sketch 61.2 (89653) - https://sketch.com -->
    <title>noun_Download_3560756</title>
    <desc>Created with Sketch.</desc>
    <g id="VIEWPORT" stroke="none" stroke-width="1" fill="none" fill-rule="evenodd">
        <g id="Etape-1---Taille-réel" transform="translate(-611.000000, -192.000000)" fill="#FFFFFF" fill-rule="nonzero">
            <g id="Bouton-collecte-Copy" transform="translate(566.000000, 160.000000)">
                <g id="noun_Download_3560756" transform="translate(45.000000, 32.000000)">
                    <path d="M15.5,21 C15.8673252,20.9996658 16.2194876,20.8485947 16.479064,20.58 L23,13.8409091 L21.0418719,11.8172727 L16.885468,16.1127273 L16.885468,0 L14.114532,0 L14.114532,16.1127273 L9.95812808,11.8172727 L8,13.8409091 L14.520936,20.58 C14.7805124,20.8485947 15.1326748,20.9996658 15.5,21 L15.5,21 Z" id="Path"></path>
                    <path d="M16.0099998,30 C22.3053916,29.9963414 27.9730826,26.2664236 30.3511717,20.5620449 C32.7292607,14.8576663 31.3452254,8.31227695 26.8490953,4 L24.7492705,6.09898352 C28.3757699,9.57769596 29.4911309,14.8578659 27.571304,19.4586198 C25.6514772,24.0593736 21.0781155,27.0661022 16,27.0661022 C10.9218857,27.0661022 6.34852399,24.0593736 4.42869715,19.4586198 C2.50887031,14.8578659 3.62423126,9.57769596 7.25073066,6.09898352 L5.15090588,4 C0.652173476,8.31477196 -0.73061881,14.8649288 1.65260856,20.571105 C4.03583593,26.2772812 9.71096529,30.0042938 16.0099998,30 L16.0099998,30 Z" id="Path"></path>
                </g>
            </g>
        </g>
    </g>
</svg>