<?xml version="1.0" encoding="UTF-8"?>
<svg width="32px" height="32px" viewBox="0 0 32 32" version="1.1" xmlns="http://www.w3.org/2000/svg" xmlns:xlink="http://www.w3.org/1999/xlink">
    <!-- Generator: Sketch 61.2 (89653) - https://sketch.com -->
    <title>Shape</title>
    <desc>Created with Sketch.</desc>
    <g id="VIEWPORT" stroke="none" stroke-width="1" fill="none" fill-rule="evenodd">
        <g id="Etape-3-Revenir---Taille-réel" transform="translate(-191.000000, -156.000000)" fill="#FFFFFF" fill-rule="nonzero" stroke="#FFFFFF" stroke-width="1.25">
            <g id="Group-6" transform="translate(192.000000, 157.000000)">
                <path d="M16.4285714,10.7142857 L9.87714286,10.7142857 L13.6578571,6.93357143 L12.6478571,5.92357143 L7.14285714,11.4285714 L12.6478571,16.9335714 L13.6578571,15.9235714 L9.87714286,12.1428571 L16.4285714,12.1428571 C18.7917857,12.1428571 20.7142857,14.0653571 20.7142857,16.4285714 C20.7142857,18.7917857 18.7917857,20.7142857 16.4285714,20.7142857 L10.7142857,20.7142857 L10.7142857,22.1428571 L16.4285714,22.1428571 C19.5792857,22.1428571 22.1428571,19.5792857 22.1428571,16.4285714 C22.1428571,13.2778571 19.5792857,10.7142857 16.4285714,10.7142857 Z M15,0 C6.72892857,0 0,6.72928571 0,15 C0,23.2707143 6.72892857,30 15,30 C23.2714286,30 30,23.2707143 30,15 C30,6.72928571 23.2714286,0 15,0 Z M15,28.5714286 C7.51678571,28.5714286 1.42857143,22.4832143 1.42857143,15 C1.42857143,7.51678571 7.51678571,1.42857143 15,1.42857143 C22.4832143,1.42857143 28.5714286,7.51678571 28.5714286,15 C28.5714286,22.4832143 22.4832143,28.5714286 15,28.5714286 Z" id="Shape"></path>
            </g>
        </g>
    </g>
</svg>