<svg width="40" height="35" viewBox="0 0 40 35" fill="none" xmlns="http://www.w3.org/2000/svg">
    <path fill-rule="evenodd" clip-rule="evenodd" d="M24.6804 24.7215C23.3408 27.3835 17.3904 28.3689 15.2113 28.5233L14.0604 28.6048L14.1077 29.0038C14.2257 29.9429 14.3083 30.8146 14.3673 31.6157C14.2714 31.5883 14.1785 31.5663 14.0966 31.5569C9.50881 30.349 5.07299 27.469 3.35192 25.7907C3.86315 25.1283 4.39061 24.3742 4.90996 23.5104C5.03684 23.2595 5.16151 23.004 5.28176 22.7422C6.29832 23.8318 8.03413 24.6376 10.5394 25.1777C11.0912 25.2976 11.6002 25.358 12.0679 25.358C13.3707 25.358 14.3415 24.8963 14.9686 23.9768C16.3392 21.9614 15.3263 18.26 14.2021 15.4411C14.2036 15.4395 14.2087 15.4356 14.2087 15.4356C14.2087 15.4356 13.6702 14.0035 15.1581 14.2951C19.2856 15.532 19.9547 17.9346 19.982 18.0436L20.1952 19.0219L21.135 18.9333C23.7908 18.688 25.5406 19.014 25.9869 19.8058C26.6036 20.9001 25.2566 23.5778 24.6804 24.7215ZM9.44139 15.2507L9.45751 15.2715C9.45751 15.2715 10.8662 14.5236 11.5483 15.5607C12.8627 18.3802 13.9407 21.7596 13.1243 22.8938C12.7276 23.4427 11.6404 23.3533 10.7987 23.1814C7.03828 22.4127 6.25642 21.2777 6.09529 20.8251C6.03774 20.6601 6.02393 20.4944 6.03928 20.3386C7.16641 17.6725 8.41554 16.1366 9.44139 15.2507ZM16.4836 34.6348C16.4881 33.5589 16.446 32.4174 16.3478 31.2071L16.3449 30.7676C18.9124 30.4426 24.6815 29.3343 26.4328 25.8268C27.6454 23.3999 28.8417 20.6378 27.6889 18.5761C26.8993 17.1658 25.2395 16.4788 22.6114 16.4788C22.2837 16.4788 21.9361 16.4899 21.573 16.512C20.7796 14.9025 18.3766 11.7957 11.533 11.2431L11.4496 11.2368L11.3655 11.2439C11.2031 11.2574 7.68719 11.6345 4.83549 17.6709C4.56685 18.0472 4.265 18.6401 4.12404 19.3429C4.08493 19.4425 4.04729 19.5381 4.00965 19.6401C2.9875 22.3911 1.80814 24.6101 0 26.256C0 26.256 6.28348 33.3447 16.4836 34.6348Z" fill="white"/>
    <path d="M24.8822 1H18.3343V8.31187" stroke="white" stroke-width="2" stroke-linecap="round" stroke-linejoin="round"/>
    <path d="M32.0849 1H38.6329V8.31187" stroke="white" stroke-width="2" stroke-linecap="round" stroke-linejoin="round"/>
    <path d="M32.0849 22.2046H38.6329V14.8927" stroke="white" stroke-width="2" stroke-linecap="round" stroke-linejoin="round"/>
</svg>
