<?xml version="1.0" encoding="UTF-8"?>
<svg width="72px" height="60px" viewBox="0 0 72 60" version="1.1" xmlns="http://www.w3.org/2000/svg" xmlns:xlink="http://www.w3.org/1999/xlink">
    <!-- Generator: Sketch 61.2 (89653) - https://sketch.com -->
    <title>Fill 1</title>
    <desc>Created with Sketch.</desc>
    <g id="UI-Design" stroke="none" stroke-width="1" fill="none" fill-rule="evenodd" stroke-linecap="round" stroke-linejoin="round">
        <g id="Home-screen-Copy" transform="translate(-1183.000000, -277.000000)" fill="#FFFFFF" stroke="#FFFFFF" stroke-width="2">
            <g id="Bouton-Copy" transform="translate(1075.000000, 242.000000)">
                <g id="Group-3" transform="translate(109.000000, 36.000000)">
                    <path d="M66.5221771,13.248659 C65.1703882,15.8555441 59.1654975,16.8196924 56.9673517,16.9709163 L55.8061234,17.0515178 L55.8537635,17.4422435 C55.9721195,18.3618691 56.0562341,19.2154781 56.1157843,20 C56.0190152,19.9731328 55.9252237,19.9516391 55.8425978,19.9416598 C51.2133162,18.7587358 46.7373763,15.9392162 45,14.2957118 C45.5165978,13.6470611 46.0488274,12.9078296 46.5721246,12.0626645 C46.7001575,11.816254 46.8267016,11.5660053 46.9472907,11.3096156 C47.9737868,12.3773945 49.7253063,13.1657546 52.2524668,13.695422 C52.8092609,13.8121024 53.3236255,13.8712102 53.7955606,13.8712102 C55.1101307,13.8712102 56.0897311,13.4190738 56.7224517,12.5186391 C58.1055044,10.5450521 57.0834746,6.92028443 55.9490438,4.16064023 C55.9505325,4.15910496 55.9557432,4.15526679 55.9557432,4.15526679 C55.9557432,4.15526679 55.4116035,2.75279949 56.9137566,3.03835933 C61.0785469,4.24968577 61.7536969,6.60171632 61.7812389,6.70841745 L61.9963639,7.66642467 L62.9447004,7.58044966 C65.6244582,7.33941259 67.3901209,7.65874833 67.8404691,8.43482629 C68.4627684,9.50644334 67.1035357,12.1286811 66.5221771,13.248659 M53.117432,34.8629142 C48.6838668,39.2311999 47.7502473,51.0748979 47.6638011,52.3300045 C47.6638011,52.3307611 47.8532311,53.8219095 49.3220657,53.5003783 C49.3370998,53.4965956 49.3506305,53.4950825 49.3634096,53.4920563 C51.0194191,52.9798759 52.1980949,53.0623392 52.7581163,53.7439855 C53.2189124,54.3045847 53.3218962,55.0444848 53.3061103,56 L47.6209538,56 C47.1744401,56 46.8091107,55.7896807 46.4693394,55.4401574 C44.9817122,53.9142079 44.7313939,49.7206839 44.7614621,48.2476925 L44.9388649,38.0804963 C44.9726917,36.1437434 43.1843818,36.7179604 43.1843818,36.7179604 L43.1911472,36.7126645 C41.616322,37.2233318 39.7250283,37.4843395 37.5556033,37.4843395 C30.7443904,37.4843395 23.1566646,34.9408383 21.3157353,34.2856711 C19.5274254,33.6880012 19.3906148,35.1405659 19.3906148,35.1405659 L19.3891114,35.1284612 C18.7839877,39.5126343 15.6305787,42.0107429 11.9795401,44.8977152 C7.34451759,48.5616583 9.44403394,51.7754577 9.53499043,51.9101226 L9.99728995,52.5879861 L10.7798165,52.3307611 C11.0369001,52.251324 11.2631638,52.191557 11.4533455,52.191557 C11.7525247,52.191557 11.8825699,52.2558632 11.9765333,52.364049 C12.2862364,52.7196248 12.4170333,53.4512029 12.4380811,54.088213 L6.69880167,54.088213 C5.64340569,52.1771826 5.96438438,47.8058708 6.48306189,45.0671811 C9.65676689,42.1507036 9.61692644,39.5277652 9.56280357,35.8388561 C9.53198361,33.7999697 9.49364657,31.2617643 9.97849729,27.9866848 C11.0120938,20.9810864 14.8187357,19.850053 23.5265042,19.850053 C25.0487099,19.850053 26.6257902,19.8840974 28.688473,19.9310032 C29.1379935,19.9415948 29.574735,19.9468906 30.002456,19.9468906 C35.3440827,19.9468906 39.0717954,19.1260402 41.8125174,17.5902557 C41.8200345,17.586473 41.8260481,17.5857164 41.8320618,17.5819337 C41.8320618,17.5819337 42.6484151,17.0871539 43.803788,16 C48.5838899,20.1912544 54.6869952,22.1824784 56.6429357,22.594795 C56.7692224,22.6227871 56.8842335,22.6341353 56.9887207,22.6341353 C56.9932309,22.6341353 56.995486,22.6333787 57,22.6333787 C57.000748,24.2455742 56.887992,25.1511575 56.887992,25.1511575 C56.1904083,31.9244969 53.1775685,34.8076865 53.117432,34.8629142 M51.2351275,4.23199412 L51.2504234,4.25130827 C51.2504234,4.25130827 52.5877168,3.53074176 53.2352407,4.5298778 C54.4829442,7.24648783 55.5063087,10.5024085 54.7305911,11.5958867 C54.3547505,12.1247974 53.3226455,12.0386266 52.5236199,11.8729705 C48.9538622,11.132347 48.2109214,10.0381259 48.0586914,9.60207176 C48.0040634,9.44310141 47.9909527,9.28413107 48.0055202,9.1333321 C49.0755006,6.56454963 50.2612924,5.0847883 51.2351275,4.23199412 M69.528564,7.00323843 C68.7315377,5.65750628 67.0562927,5.00198988 64.4037593,5.00198988 C64.0730306,5.00198988 63.7221901,5.01330489 63.3557069,5.03367192 C62.5549562,3.49860188 60.1296126,0.533314258 53.2215546,0.00603467336 L53.1381276,0 L53.0532108,0.00678900753 C52.8893362,0.0203670226 49.339962,0.379430088 46.4624736,6.14028014 C46.1913356,6.49858887 45.8866779,7.0643395 45.7436601,7.73494258 C45.7049261,7.82998868 45.666937,7.92126312 45.6289479,8.01857223 C43.1842373,14.2388118 39.854604,17.6076682 29.2772455,17.6076682 C28.8705386,17.6076682 28.4541482,17.6031422 28.0265846,17.5940902 C26.3781554,17.5556191 24.5092404,17.5111134 22.8600663,17.5111134 C17.8149643,17.5111134 13.4752677,17.8068124 10.6141667,20.3443926 C10.1545731,20.740418 9.76052922,21.2020705 9.42011705,21.681827 L9.28976227,21.6282693 C6.1508194,20.3541989 2.84129799,17.3081975 2.96718346,12.5815396 C3.0751917,8.54509748 5.7545409,6.69094409 8.01600994,6.32886369 C10.6022486,5.91247122 13.0320615,7.18880464 13.7918436,9.36128705 C14.2313254,10.6164991 14.9344963,11.2433508 15.6764012,11.0464696 C16.2954001,10.8790074 16.8570429,10.1186386 16.6857195,9.17949252 C16.4384179,7.82621701 15.0372903,5.75104371 12.9262879,4.5720194 C10.7810209,3.37639975 8.38547261,3.29945766 5.80742769,4.34345615 C3.27035141,5.37236796 1.53477075,6.99946676 0.648358308,9.17873818 C-0.30360396,11.5186828 -0.202299681,14.4794444 0.919496231,17.1007556 C1.57648427,18.6312997 4.59773542,22.7650509 8.1947822,23.9508642 C7.82755419,24.8522936 7.6696387,25.519125 7.6696387,25.519125 C7.5072539,26.1384333 7.3687054,26.7999844 7.2636767,27.5181105 C6.75790019,30.9624003 6.79737906,33.5912549 6.82866421,35.7056536 C6.881551,39.3581397 6.90836684,41.1874 4.24838463,43.5182926 L3.96905298,43.7551535 L3.89307477,44.1036559 C3.71281274,44.9756662 2.21336044,52.6676118 4.76384464,55.7671709 L5.09233866,56.0945519 L13.8775053,56.0945519 L14.0041357,55.2029289 C14.0436145,54.8989322 14.3579558,52.2602713 13.0648364,50.7636723 C12.4652045,50.0711935 11.6286993,49.7423038 10.6461968,49.8049136 C10.6156565,49.1177151 10.9232938,47.9281302 12.771352,46.4571785 C16.1389744,43.7785379 19.6101357,41.0176748 20.7051158,36.4954415 C23.455229,37.4376049 30.3208285,39.5437059 36.7610991,39.5437059 C38.6419322,39.5437059 40.3514419,39.3664373 41.865047,39.0013396 L41.7078764,48.0292109 C41.6952134,48.6620973 41.6467959,54.3143232 44.0252118,56.774207 C44.7708411,57.5451365 45.7086505,58 46.7343564,58 L54.2636479,58 L54.4364611,57.0548193 C54.4975416,56.7410163 54.9906551,53.8798268 53.5232328,52.0731964 C53.0100075,51.4418187 52.0416577,50.6882389 50.3418315,50.6882389 C49.952257,50.6882389 49.5343768,50.7282186 49.0911706,50.808178 C49.5224587,46.6978111 50.8468632,39.1303307 53.6841279,36.3174186 C53.9165318,36.1054507 59.1240187,31.1607902 58.0819254,19.0567441 L58.0789458,18.63658 C60.6703987,18.3265487 66.4931601,17.2697265 68.2607707,13.9219914 C69.4838709,11.6061855 70.6920734,8.97129628 69.528564,7.00323843" id="Fill-1"></path>
                </g>
            </g>
        </g>
    </g>
</svg>