<svg width="194" height="194" viewBox="0 0 194 194" fill="none" xmlns="http://www.w3.org/2000/svg">
    <path d="M192 96.9995C192 149.467 149.468 192 97 192C44.5325 192 2 149.467 2 96.9995C2 44.5332 44.5325 2 97 2C149.468 2 192 44.5332 192 96.9995" stroke="white" stroke-width="3"/>
    <path fill-rule="evenodd" clip-rule="evenodd" d="M94.3982 70.5948C96.2761 81.0812 91.5071 90.7226 83.75 92.1306C75.9904 93.5386 68.1802 86.1798 66.3016 75.6934C64.7193 66.8492 67.8626 58.6067 73.5378 55.3962C73.7223 50.1021 75.4728 42.8377 77.1776 42.5286C79.2987 42.1448 81.7024 45.6635 82.5482 50.3881C82.8242 51.9251 82.8968 53.3972 82.8021 54.7017C88.3099 56.7138 92.9988 62.7855 94.3982 70.5948ZM71.8177 95.5543C68.1351 89.4466 62.2386 85.8649 56.9546 85.9603C56.6167 84.8336 56.0837 83.6204 55.3574 82.4178C53.1306 78.7226 49.9776 76.5459 48.3154 77.5559C46.9766 78.3702 47.8353 85.0629 49.383 89.5706C45.6385 94.1094 45.6223 102.032 49.7883 108.945C54.7319 117.147 63.6709 120.798 69.7534 117.1C75.8359 113.403 76.7605 103.756 71.8177 95.5543ZM122.625 122.179C115.31 116.174 111.762 109.378 108.895 101.112C104.623 89.55 89.6757 90.6253 85.6419 101.112C82.9835 108.942 78.775 116.119 71.9107 122.179C63.5741 129.301 72.1164 142.542 83.5368 140.018C92.4562 138.149 101.605 138.106 110.998 140.018C122.42 143.383 130.725 128.249 122.625 122.179ZM146.121 89.5706C147.668 85.0629 148.528 78.3694 147.188 77.5559C145.526 76.5459 142.373 78.7226 140.145 82.4178C139.421 83.6204 138.887 84.8336 138.549 85.9603C133.265 85.8649 127.368 89.4466 123.687 95.5543C118.744 103.756 119.667 113.403 125.75 117.1C131.833 120.798 140.772 117.147 145.716 108.945C149.882 102.032 149.865 94.1086 146.121 89.5706ZM129.202 75.6934C127.325 86.1798 119.513 93.5386 111.754 92.1306C103.997 90.7226 99.2274 81.0812 101.106 70.5948C102.505 62.7855 107.194 56.7138 112.702 54.7017C112.607 53.3972 112.68 51.9251 112.956 50.3881C113.803 45.6635 116.206 42.1448 118.327 42.5286C120.032 42.8377 121.782 50.1021 121.966 55.3962C127.643 58.6067 130.785 66.8492 129.202 75.6934Z" fill="white"/>
</svg>
