<svg width="367" height="367" viewBox="0 0 367 367" fill="none" xmlns="http://www.w3.org/2000/svg">
<path d="M361 183.499C361 281.53 281.533 361 183.5 361C85.4686 361 6 281.53 6 183.499C6 85.4699 85.4686 6 183.5 6C281.533 6 361 85.4699 361 183.499" stroke="white" stroke-width="12"/>
<path fill-rule="evenodd" clip-rule="evenodd" d="M177.593 136.548C181.462 158.028 171.637 177.776 155.656 180.661C139.67 183.545 123.58 168.471 119.71 146.991C116.45 128.876 122.926 111.992 134.618 105.416C134.998 94.5716 138.604 79.6917 142.116 79.0587C146.486 78.2724 151.438 85.48 153.18 95.1575C153.749 98.3059 153.899 101.321 153.704 103.993C165.051 108.115 174.71 120.552 177.593 136.548ZM131.175 187.576C123.55 174.972 111.342 167.581 100.402 167.778C99.7025 165.453 98.5991 162.949 97.0954 160.468C92.485 152.843 85.957 148.351 82.5156 150.435C79.7436 152.115 81.5215 165.926 84.7258 175.228C76.9733 184.594 76.9397 200.944 85.5651 215.209C95.8002 232.135 114.308 239.667 126.901 232.037C139.494 224.407 141.408 204.501 131.175 187.576ZM236.08 242.623C221.069 230.371 213.79 216.508 207.906 199.643C199.141 176.055 168.469 178.249 160.192 199.643C154.737 215.617 146.101 230.26 132.016 242.623C114.91 257.152 132.438 284.166 155.872 279.016C174.175 275.204 192.948 275.115 212.222 279.016C235.659 285.882 252.7 255.007 236.08 242.623ZM284.274 175.228C287.477 165.926 289.258 152.114 286.484 150.435C283.043 148.351 276.515 152.843 271.903 160.468C270.404 162.949 269.297 165.453 268.598 167.778C257.658 167.581 245.449 174.972 237.828 187.576C227.595 204.501 229.506 224.407 242.099 232.037C254.694 239.667 273.2 232.135 283.436 215.209C292.06 200.944 292.027 184.592 284.274 175.228ZM249.29 146.991C245.423 168.471 229.329 183.545 213.343 180.661C197.364 177.776 187.537 158.028 191.408 136.548C194.289 120.552 203.951 108.115 215.298 103.993C215.101 101.321 215.252 98.3059 215.821 95.1575C217.565 85.48 222.515 78.2724 226.885 79.0587C230.397 79.6917 234.003 94.5716 234.382 105.416C246.077 111.992 252.549 128.876 249.29 146.991Z" fill="white"/>
</svg>
