<?xml version="1.0" encoding="UTF-8"?>
<svg width="77px" height="58px" viewBox="0 0 77 58" version="1.1" xmlns="http://www.w3.org/2000/svg" xmlns:xlink="http://www.w3.org/1999/xlink">
    <!-- Generator: Sketch 61.2 (89653) - https://sketch.com -->
    <title>Group</title>
    <desc>Created with Sketch.</desc>
    <g id="UI-Design" stroke="none" stroke-width="1" fill="none" fill-rule="evenodd" stroke-linecap="round" stroke-linejoin="round">
        <g id="Home-screen-Copy" transform="translate(-1123.000000, -485.000000)" stroke="#FFFFFF">
            <g id="Bouton" transform="translate(1075.000000, 446.000000)">
                <g id="Group-2" transform="translate(48.000000, 40.000000)">
                    <g id="Group" transform="translate(0.000000, 0.500000)">
                        <path d="M47.0176025,38.1416988 C44.4471898,42.8459355 33.0303682,44.5871681 28.8492014,44.8600581 L26.6411377,45.0041219 L26.731725,45.7092033 C26.958193,47.3687073 27.1167207,48.9090817 27.2299547,50.3247855 C27.0459494,50.2763025 26.8676058,50.237516 26.7104936,50.2208933 C17.9079627,48.0862558 9.39700953,42.9969255 6.09482197,40.0311508 C7.0757118,38.8606325 8.087741,37.5280424 9.08420051,36.0015204 C9.32765369,35.5582472 9.56686059,35.1066626 9.79757494,34.6439962 C11.7480312,36.5694642 15.0785273,37.9934793 19.8853121,38.9479019 C20.9440503,39.1598419 21.9206939,39.2665045 22.8180736,39.2665045 C25.3177149,39.2665045 27.1804148,38.4506048 28.3835265,36.8257315 C31.0133869,33.2643084 29.0700078,26.7232583 26.9128994,21.7419758 C26.9157303,21.7392054 26.9256383,21.7322792 26.9256383,21.7322792 C26.9256383,21.7322792 25.8923777,19.2014663 28.7472908,19.7167714 C36.6665962,21.9026623 37.9503871,26.1483884 38.0027578,26.3409352 L38.4118157,28.0697007 L40.2150678,27.9131698 C45.3105994,27.4795932 48.6679885,28.0558484 49.5243209,29.4549294 C50.7076166,31.3887087 48.1230497,36.12065 47.0176025,38.1416988 M18.2136946,20.7030543 L18.2434186,20.7404554 C18.2434186,20.7404554 20.8421397,19.3967836 22.1004529,21.2599162 C24.5250767,26.3256977 26.5137495,32.3971552 25.0077368,34.4348267 C24.2759618,35.4211095 22.270304,35.260423 20.7175823,34.951517 C13.7805821,33.5704439 12.3382636,31.5313873 12.0410243,30.718258 C11.9348674,30.421819 11.9093897,30.1239949 11.9376982,29.8441787 C14.0169582,25.0540577 16.3212708,22.2946821 18.2136946,20.7030543 M31.6135273,55.5 C31.6220199,53.6147037 31.5413406,51.6144334 31.353089,49.4936482 L31.3474273,48.723461 C36.2716925,48.154132 47.3360732,46.2120414 50.6948778,40.0657815 C53.0204218,35.8131293 55.3148264,30.9731401 53.1039319,27.3604635 C51.5894266,24.8892155 48.4061348,23.6854517 43.3658048,23.6854517 C42.7373559,23.6854517 42.0706905,23.7048449 41.3743012,23.7436313 C39.8527189,20.9233056 35.2440936,15.4793567 22.1188534,14.5110818 L21.9589104,14.5 L21.7975519,14.5124671 C21.4861583,14.5360159 14.7430714,15.1967701 9.27386752,25.7743766 C8.75865266,26.4337455 8.17974365,27.4726671 7.90939739,28.7041354 C7.83437984,28.8786742 7.76219314,29.0462869 7.69000645,29.2249814 C5.7296422,34.0455774 3.46779234,37.9339145 0,40.8179607 C0,40.8179607 12.0509322,53.2393067 31.6135273,55.5" id="Fill-1" fill="#FFFFFF"></path>
                        <polyline id="Path-3" stroke-width="4" points="52 0.5 40 0.5 40 12.5"></polyline>
                        <polyline id="Path-3-Copy" stroke-width="4" transform="translate(69.000000, 6.500000) scale(-1, 1) translate(-69.000000, -6.500000) " points="75 0.5 63 0.5 63 12.5"></polyline>
                        <polyline id="Path-3-Copy-3" stroke-width="4" transform="translate(69.000000, 28.500000) scale(-1, -1) translate(-69.000000, -28.500000) " points="75 22.5 63 22.5 63 34.5"></polyline>
                    </g>
                </g>
            </g>
        </g>
    </g>
</svg>