<svg width="36" height="30" viewBox="0 0 36 30" fill="none" xmlns="http://www.w3.org/2000/svg">
    <path fill-rule="evenodd" clip-rule="evenodd" d="M32.9234 6.9462C32.2905 8.18476 29.4788 8.64284 28.4496 8.71469L27.9059 8.75298L27.9282 8.93862C27.9836 9.37555 28.023 9.78111 28.0509 10.1538C28.0055 10.1411 27.9616 10.1309 27.9229 10.1261C25.7554 9.56411 23.6596 8.22451 22.8461 7.44366C23.088 7.13548 23.3372 6.78426 23.5823 6.38271C23.6422 6.26564 23.7015 6.14674 23.7579 6.02493C24.2385 6.53225 25.0587 6.90681 26.2419 7.15846C26.5026 7.21389 26.7435 7.24198 26.9645 7.24198C27.58 7.24198 28.0387 7.02716 28.3349 6.59935C28.9825 5.66168 28.504 3.9395 27.9728 2.62836C27.9735 2.62763 27.9759 2.62581 27.9759 2.62581C27.9759 2.62581 27.7211 1.95947 28.4245 2.09515C30.3746 2.67067 30.6907 3.78815 30.7036 3.83884L30.8043 4.294L31.2483 4.25315C32.5031 4.13863 33.3298 4.29036 33.5407 4.65908C33.8321 5.16822 33.1956 6.41408 32.9234 6.9462ZM26.3861 17.6797C24.2797 19.7967 23.8361 25.5363 23.795 26.1445C23.795 26.1449 23.885 26.8675 24.5829 26.7117C24.59 26.7099 24.5964 26.7092 24.6025 26.7077C25.3893 26.4595 25.9493 26.4994 26.2154 26.8298C26.4343 27.1015 26.4832 27.46 26.4757 27.9231H23.7746C23.5625 27.9231 23.3889 27.8212 23.2275 27.6518C22.5207 26.9123 22.4018 24.88 22.4161 24.1662L22.5004 19.239C22.5164 18.3004 21.6668 18.5787 21.6668 18.5787L21.67 18.5761C20.9218 18.8236 20.0232 18.9501 18.9925 18.9501C15.7564 18.9501 12.1513 17.7175 11.2767 17.4C10.427 17.1103 10.362 17.8143 10.362 17.8143L10.3613 17.8084C10.0738 19.933 8.5756 21.1437 6.84094 22.5427C4.63878 24.3183 5.63629 25.8758 5.67951 25.9411L5.89915 26.2696L6.27094 26.1449C6.39308 26.1064 6.50058 26.0774 6.59094 26.0774C6.73309 26.0774 6.79487 26.1086 6.83952 26.161C6.98666 26.3334 7.0488 26.6879 7.0588 26.9966H4.332C3.83056 26.0705 3.98306 23.9521 4.2295 22.6249C5.73736 21.2115 5.71844 19.9404 5.69272 18.1527C5.67808 17.1646 5.65986 15.9345 5.89022 14.3474C6.3813 10.9524 8.18988 10.4043 12.3271 10.4043C13.0503 10.4043 13.7996 10.4208 14.7796 10.4435C14.9932 10.4486 15.2007 10.4512 15.4039 10.4512C17.9417 10.4512 19.7128 10.0534 21.015 9.30912C21.0186 9.30729 21.0214 9.30692 21.0243 9.30509C21.0243 9.30509 21.4121 9.06531 21.9611 8.53846C24.2321 10.5696 27.1318 11.5346 28.0611 11.7344C28.1211 11.748 28.1758 11.7535 28.2254 11.7535C28.2275 11.7535 28.2286 11.7531 28.2308 11.7531C28.2311 12.5344 28.1775 12.9733 28.1775 12.9733C27.8461 16.2557 26.4147 17.653 26.3861 17.6797ZM25.9547 2.72469L25.9617 2.73379C25.9617 2.73379 26.5789 2.39429 26.8778 2.86504C27.4537 4.14498 27.926 5.67902 27.568 6.19422C27.3945 6.44341 26.9181 6.40281 26.5493 6.32477C24.9018 5.97582 24.5589 5.46027 24.4886 5.25482C24.4634 5.17992 24.4573 5.10502 24.4641 5.03397C24.9579 3.82368 25.5052 3.12649 25.9547 2.72469ZM34.4675 4.38087C34.0873 3.73121 33.2884 3.41475 32.0233 3.41475C31.8656 3.41475 31.6983 3.42022 31.5235 3.43005C31.1416 2.68898 29.9849 1.25746 26.6903 1.00291L26.6505 1L26.61 1.00328C26.5318 1.00983 24.839 1.18317 23.4667 3.96427C23.3374 4.13725 23.1921 4.41037 23.1239 4.73411C23.1054 4.77999 23.0873 4.82406 23.0692 4.87103C21.9032 7.87391 20.3153 9.50025 15.2707 9.50025C15.0767 9.50025 14.8781 9.49807 14.6742 9.4937C13.888 9.47513 12.9967 9.45364 12.2102 9.45364C9.80405 9.45364 7.73434 9.59639 6.36982 10.8214C6.15063 11.0126 5.9627 11.2355 5.80035 11.4671L5.73818 11.4412C4.24115 10.8262 2.66276 9.35568 2.7228 7.07385C2.77431 5.12522 4.05215 4.23011 5.1307 4.05531C6.36414 3.8543 7.52297 4.47046 7.88533 5.51924C8.09493 6.12521 8.43028 6.42782 8.78412 6.33278C9.07933 6.25193 9.34719 5.88486 9.26548 5.43148C9.14754 4.77817 8.47931 3.77637 7.47252 3.20718C6.4494 2.62999 5.3069 2.59284 4.07737 3.09684C2.86738 3.59356 2.03965 4.37905 1.6169 5.43112C1.16288 6.56074 1.2112 7.99008 1.74621 9.25554C2.05954 9.99442 3.50044 11.99 5.21596 12.5625C5.04082 12.9977 4.96551 13.3196 4.96551 13.3196C4.88806 13.6186 4.82198 13.9379 4.77189 14.2846C4.53068 15.9474 4.5495 17.2165 4.56443 18.2372C4.58965 20.0005 4.60244 20.8836 3.33383 22.0088L3.20061 22.1232L3.16438 22.2914C3.0784 22.7124 2.36328 26.4257 3.57967 27.9221L3.73633 28.0801H7.92618L7.98657 27.6497C8.0054 27.5029 8.15532 26.2291 7.5386 25.5066C7.25262 25.1723 6.85367 25.0135 6.3851 25.0438C6.37053 24.712 6.51725 24.1377 7.39863 23.4276C9.00473 22.1345 10.6602 20.8016 11.1824 18.6185C12.494 19.0733 15.7684 20.0901 18.8399 20.0901C19.7369 20.0901 20.5522 20.0045 21.2741 19.8282L21.1991 24.1865C21.1931 24.492 21.17 27.2207 22.3043 28.4082C22.6599 28.7804 23.1072 29 23.5964 29H27.1873L27.2697 28.5437C27.2988 28.3922 27.534 27.011 26.8341 26.1388C26.5894 25.834 26.1275 25.4702 25.3169 25.4702C25.1311 25.4702 24.9318 25.4895 24.7204 25.5281C24.9261 23.5438 25.5577 19.8905 26.9109 18.5325C27.0217 18.4302 29.5053 16.0431 29.0083 10.1998L29.0069 9.99697C30.2428 9.8473 33.0198 9.33711 33.8628 7.72096C34.4461 6.60299 35.0224 5.33097 34.4675 4.38087Z" fill="white"/>
    <path d="M33.3686 7.17372C33.4943 6.92783 33.3968 6.62662 33.1509 6.50096C32.905 6.3753 32.6038 6.47277 32.4782 6.71867L33.3686 7.17372ZM28.4496 8.71469L28.4148 8.2159L28.4145 8.21592L28.4496 8.71469ZM27.9059 8.75298L27.8707 8.25422C27.7342 8.26384 27.6076 8.32901 27.5204 8.43454C27.4332 8.54007 27.3931 8.67673 27.4094 8.81263L27.9059 8.75298ZM27.9282 8.93862L27.4317 8.99828L27.4321 9.00154L27.9282 8.93862ZM28.0509 10.1538L27.9153 10.6351C28.0723 10.6794 28.2411 10.6442 28.3674 10.5409C28.4937 10.4376 28.5616 10.2792 28.5495 10.1165L28.0509 10.1538ZM27.9229 10.1261L27.7974 10.6101C27.8187 10.6156 27.8403 10.6197 27.8621 10.6224L27.9229 10.1261ZM22.8461 7.44366L22.4528 7.13496C22.2942 7.33705 22.3146 7.62647 22.4999 7.80438L22.8461 7.44366ZM23.5823 6.38271L24.0091 6.64315C24.0155 6.63253 24.0216 6.62168 24.0273 6.6106L23.5823 6.38271ZM23.7579 6.02493L24.1209 5.68105C24.0069 5.56075 23.8407 5.50473 23.6772 5.53149C23.5136 5.55825 23.374 5.66431 23.3043 5.81466L23.7579 6.02493ZM26.2419 7.15846L26.1379 7.64752L26.1379 7.64752L26.2419 7.15846ZM28.3349 6.59935L28.746 6.88401L28.7463 6.88349L28.3349 6.59935ZM27.9728 2.62836L27.6113 2.28291C27.4754 2.42512 27.4355 2.63379 27.5094 2.8161L27.9728 2.62836ZM27.9759 2.62581L28.2753 3.02629C28.4543 2.89245 28.5228 2.65603 28.4429 2.44723L27.9759 2.62581ZM28.4245 2.09515L28.566 1.6156C28.5506 1.61105 28.535 1.60724 28.5192 1.6042L28.4245 2.09515ZM30.7036 3.83884L31.1918 3.7308C31.1906 3.72571 31.1894 3.72063 31.1881 3.71558L30.7036 3.83884ZM30.8043 4.294L30.3161 4.40204C30.3705 4.64793 30.5993 4.81497 30.8501 4.7919L30.8043 4.294ZM31.2483 4.25315L31.2029 3.75522L31.2025 3.75526L31.2483 4.25315ZM33.5407 4.65908L33.1066 4.9073L33.1067 4.90743L33.5407 4.65908ZM32.4783 6.71848C32.3525 6.96432 32.4499 7.26557 32.6957 7.39133C32.9415 7.51709 33.2428 7.41975 33.3685 7.17391L32.4783 6.71848ZM26.7405 18.0324C26.9353 17.8366 26.9345 17.5201 26.7388 17.3253C26.543 17.1305 26.2264 17.1313 26.0317 17.327L26.7405 18.0324ZM23.795 26.1445L23.2961 26.1109C23.2954 26.1221 23.295 26.1333 23.295 26.1445H23.795ZM24.5829 26.7117L24.6918 27.1997C24.697 27.1986 24.7021 27.1973 24.7072 27.196L24.5829 26.7117ZM24.6025 26.7077L24.7199 27.1937C24.731 27.191 24.742 27.188 24.7529 27.1845L24.6025 26.7077ZM26.2154 26.8298L25.826 27.1434L25.8261 27.1435L26.2154 26.8298ZM26.4757 27.9231V28.4231C26.7487 28.4231 26.9713 28.2041 26.9757 27.9312L26.4757 27.9231ZM23.2275 27.6518L23.5895 27.3068L23.589 27.3063L23.2275 27.6518ZM22.4161 24.1662L22.916 24.1762L22.916 24.1747L22.4161 24.1662ZM22.5004 19.239L22.0004 19.2304V19.2305L22.5004 19.239ZM21.6668 18.5787L21.3548 18.188C21.1658 18.3389 21.1119 18.6035 21.2268 18.8163C21.3418 19.0291 21.5925 19.1291 21.8224 19.0539L21.6668 18.5787ZM21.67 18.5761L21.982 18.9669C22.1712 18.8158 22.225 18.5508 22.1096 18.3379C21.9942 18.125 21.7429 18.0254 21.513 18.1014L21.67 18.5761ZM11.2767 17.4L11.4473 16.9299L11.438 16.9267L11.2767 17.4ZM10.362 17.8143L9.86571 17.8747C9.8966 18.1284 10.1138 18.3179 10.3693 18.3142C10.6248 18.3105 10.8364 18.1147 10.8599 17.8602L10.362 17.8143ZM10.3613 17.8084L10.8577 17.748C10.8273 17.4983 10.6162 17.3101 10.3647 17.3084C10.1132 17.3067 9.89957 17.4921 9.86584 17.7414L10.3613 17.8084ZM6.84094 22.5427L7.15478 22.932L7.15484 22.9319L6.84094 22.5427ZM5.67951 25.9411L5.26262 26.2171L5.26386 26.219L5.67951 25.9411ZM5.89915 26.2696L5.4835 26.5475C5.60887 26.735 5.84425 26.8153 6.0581 26.7436L5.89915 26.2696ZM6.27094 26.1449L6.12062 25.668L6.11199 25.6708L6.27094 26.1449ZM6.83952 26.161L6.45883 26.4852L6.45928 26.4857L6.83952 26.161ZM7.0588 26.9966V27.4966C7.19422 27.4966 7.32384 27.4417 7.41803 27.3444C7.51222 27.2471 7.56292 27.1158 7.55854 26.9804L7.0588 26.9966ZM4.332 26.9966L3.89231 27.2347C3.97969 27.396 4.14847 27.4966 4.332 27.4966V26.9966ZM4.2295 22.6249L3.88756 22.2601C3.80979 22.333 3.75735 22.4288 3.7379 22.5336L4.2295 22.6249ZM5.69272 18.1527L6.19267 18.1455L6.19267 18.1453L5.69272 18.1527ZM5.89022 14.3474L6.38504 14.4192L6.38507 14.419L5.89022 14.3474ZM14.7796 10.4435L14.7916 9.94363L14.7912 9.94362L14.7796 10.4435ZM21.015 9.30912L20.7867 8.8643C20.78 8.86773 20.7734 8.8713 20.7669 8.87503L21.015 9.30912ZM21.0243 9.30509L20.7613 8.87974L20.7543 8.88426L21.0243 9.30509ZM21.9611 8.53846L22.2944 8.16577C22.0996 7.99153 21.8034 7.99674 21.6148 8.17773L21.9611 8.53846ZM28.0611 11.7344L28.1714 11.2467L28.1662 11.2456L28.0611 11.7344ZM28.2308 11.7531L28.7308 11.7529C28.7306 11.4768 28.5068 11.2531 28.2308 11.2531V11.7531ZM28.1775 12.9733L27.6811 12.9127L27.6801 12.923L28.1775 12.9733ZM26.0443 17.3148C25.8427 17.5036 25.8324 17.82 26.0212 18.0215C26.21 18.2231 26.5264 18.2334 26.7279 18.0446L26.0443 17.3148ZM26.3497 2.41821C26.1805 2.20003 25.8664 2.16037 25.6482 2.32963C25.43 2.4989 25.3903 2.81298 25.5596 3.03117L26.3497 2.41821ZM25.9617 2.73379L25.5667 3.04027C25.7174 3.23462 25.9872 3.29044 26.2027 3.17189L25.9617 2.73379ZM26.8778 2.86504L27.3338 2.65989C27.324 2.63816 27.3127 2.61717 27.2999 2.59705L26.8778 2.86504ZM27.568 6.19422L27.9783 6.47987L27.9785 6.47955L27.568 6.19422ZM26.5493 6.32477L26.4458 6.81391L26.4458 6.81393L26.5493 6.32477ZM24.4886 5.25482L24.0147 5.41434L24.0155 5.41661L24.4886 5.25482ZM24.4641 5.03397L24.0011 4.84508C23.9826 4.89038 23.9709 4.93816 23.9663 4.98687L24.4641 5.03397ZM26.2879 3.09746C26.4938 2.91342 26.5115 2.59733 26.3274 2.39145C26.1434 2.18558 25.8273 2.16788 25.6214 2.35192L26.2879 3.09746ZM34.0359 4.63338C34.1754 4.87172 34.4816 4.95188 34.72 4.81243C34.9583 4.67298 35.0385 4.36671 34.899 4.12837L34.0359 4.63338ZM31.5235 3.43005L31.079 3.65909C31.1694 3.83451 31.3545 3.94034 31.5516 3.92926L31.5235 3.43005ZM26.6903 1.00291L26.7288 0.504395L26.7268 0.504248L26.6903 1.00291ZM26.6505 1L26.687 0.501335C26.6614 0.499462 26.6357 0.49956 26.6101 0.501629L26.6505 1ZM26.61 1.00328L26.5696 0.504905L26.5682 0.505027L26.61 1.00328ZM23.4667 3.96427L23.8672 4.26365C23.8855 4.23913 23.9015 4.21298 23.9151 4.18553L23.4667 3.96427ZM23.1239 4.73411L23.5877 4.92085C23.5986 4.89376 23.6071 4.86577 23.6131 4.83719L23.1239 4.73411ZM23.0692 4.87103L23.5353 5.05201L23.5357 5.05096L23.0692 4.87103ZM14.6742 9.4937L14.6624 9.99356L14.6635 9.99358L14.6742 9.4937ZM6.36982 10.8214L6.69851 11.1983L6.70384 11.1935L6.36982 10.8214ZM5.80035 11.4671L5.60835 11.9288C5.82498 12.0188 6.07511 11.9462 6.20978 11.7541L5.80035 11.4671ZM5.73818 11.4412L5.93018 10.9796L5.9282 10.9787L5.73818 11.4412ZM2.7228 7.07385L2.22297 7.06063L2.22297 7.0607L2.7228 7.07385ZM5.1307 4.05531L5.21069 4.54887L5.21112 4.5488L5.1307 4.05531ZM7.88533 5.51924L7.41274 5.68252L7.4128 5.68269L7.88533 5.51924ZM8.78412 6.33278L8.91383 6.81567L8.91618 6.81502L8.78412 6.33278ZM9.26548 5.43148L9.75756 5.3428L9.75753 5.34265L9.26548 5.43148ZM7.47252 3.20718L7.7186 2.77192L7.7182 2.7717L7.47252 3.20718ZM4.07737 3.09684L3.88773 2.6342L3.88749 2.6343L4.07737 3.09684ZM1.6169 5.43112L2.08083 5.61758L2.08084 5.61754L1.6169 5.43112ZM1.74621 9.25554L1.28567 9.45024L1.28589 9.45074L1.74621 9.25554ZM5.21596 12.5625L5.6798 12.7492C5.73127 12.6213 5.72766 12.4778 5.6698 12.3527C5.61195 12.2275 5.505 12.1318 5.37423 12.0882L5.21596 12.5625ZM4.96551 13.3196L5.44967 13.445L5.45236 13.4335L4.96551 13.3196ZM4.77189 14.2846L5.26671 14.3564L5.26675 14.3561L4.77189 14.2846ZM4.56443 18.2372L5.06437 18.2301L5.06437 18.2299L4.56443 18.2372ZM3.33383 22.0088L3.65953 22.3883L3.66562 22.3829L3.33383 22.0088ZM3.20061 22.1232L2.87495 21.7438C2.7921 21.8149 2.73481 21.9112 2.71182 22.0179L3.20061 22.1232ZM3.16438 22.2914L2.67556 22.1861L2.67449 22.1914L3.16438 22.2914ZM3.57967 27.9221L3.19169 28.2375C3.20204 28.2502 3.21301 28.2624 3.22457 28.2741L3.57967 27.9221ZM3.73633 28.0801L3.38123 28.4321C3.47512 28.5268 3.60296 28.5801 3.73633 28.5801V28.0801ZM7.92618 28.0801V28.5801C8.17548 28.5801 8.38669 28.3965 8.42133 28.1496L7.92618 28.0801ZM7.98657 27.6497L8.48176 27.7192L8.48251 27.7133L7.98657 27.6497ZM7.5386 25.5066L7.91889 25.182L7.91855 25.1816L7.5386 25.5066ZM6.3851 25.0438L5.88558 25.0657C5.89147 25.1999 5.95116 25.3262 6.05119 25.4159C6.15122 25.5057 6.28317 25.5514 6.41728 25.5427L6.3851 25.0438ZM7.39863 23.4276L7.08506 23.0381L7.08494 23.0382L7.39863 23.4276ZM11.1824 18.6185L11.3462 18.1461C11.2128 18.0998 11.0661 18.1121 10.9422 18.18C10.8184 18.2478 10.729 18.3648 10.6961 18.5022L11.1824 18.6185ZM21.2741 19.8282L21.774 19.8368C21.7767 19.6819 21.7073 19.5344 21.5862 19.4376C21.4652 19.3409 21.3061 19.3057 21.1555 19.3425L21.2741 19.8282ZM21.1991 24.1865L21.699 24.1964L21.6991 24.1951L21.1991 24.1865ZM22.3043 28.4082L21.9428 28.7536L21.9428 28.7537L22.3043 28.4082ZM27.1873 29V29.5C27.4291 29.5 27.6363 29.3269 27.6793 29.0889L27.1873 29ZM27.2697 28.5437L26.7786 28.4493L26.7776 28.4548L27.2697 28.5437ZM26.8341 26.1388L27.2241 25.8259L27.224 25.8257L26.8341 26.1388ZM24.7204 25.5281L24.2231 25.4765C24.2068 25.6331 24.2653 25.7881 24.3808 25.895C24.4963 26.0019 24.6554 26.0482 24.8102 26.02L24.7204 25.5281ZM26.9109 18.5325L26.5717 18.1652C26.5666 18.1699 26.5616 18.1747 26.5567 18.1796L26.9109 18.5325ZM29.0083 10.1998L28.5083 10.2033C28.5084 10.2163 28.509 10.2293 28.5101 10.2422L29.0083 10.1998ZM29.0069 9.99697L28.9468 9.5006C28.6944 9.53116 28.5051 9.74625 28.5069 10.0005L29.0069 9.99697ZM33.8628 7.72096L33.4195 7.48967L33.4195 7.48972L33.8628 7.72096ZM34.8992 4.12871C34.7599 3.89026 34.4537 3.80985 34.2153 3.94912C33.9768 4.08839 33.8964 4.39459 34.0357 4.63304L34.8992 4.12871ZM32.4782 6.71867C32.3804 6.91009 32.1753 7.11056 31.8474 7.30467C31.5247 7.49568 31.1223 7.65737 30.689 7.78979C29.8216 8.05487 28.8999 8.18204 28.4148 8.2159L28.4844 9.21348C29.0285 9.17549 30.0272 9.0377 30.9812 8.74613C31.4586 8.60023 31.9421 8.41068 32.3568 8.16521C32.7662 7.92283 33.15 7.60159 33.3686 7.17372L32.4782 6.71867ZM28.4145 8.21592L27.8707 8.25422L27.941 9.25175L28.4847 9.21345L28.4145 8.21592ZM27.4094 8.81263L27.4317 8.99827L28.4246 8.87897L28.4023 8.69333L27.4094 8.81263ZM27.4321 9.00154C27.4864 9.42946 27.525 9.82646 27.5522 10.1911L28.5495 10.1165C28.521 9.73576 28.4808 9.32164 28.4242 8.87571L27.4321 9.00154ZM28.1864 9.67258C28.1304 9.65678 28.0588 9.63903 27.9838 9.62984L27.8621 10.6224C27.8618 10.6224 27.8664 10.623 27.8766 10.6252C27.8866 10.6274 27.8994 10.6306 27.9153 10.6351L28.1864 9.67258ZM28.0484 9.64213C25.965 9.10191 23.9449 7.80531 23.1924 7.08295L22.4999 7.80438C23.3743 8.64372 25.5458 10.0263 27.7974 10.6101L28.0484 9.64213ZM23.2395 7.75237C23.4924 7.43013 23.753 7.06285 24.0091 6.64315L23.1554 6.12227C22.9215 6.50568 22.6837 6.84083 22.4528 7.13496L23.2395 7.75237ZM24.0273 6.6106C24.0888 6.4905 24.1513 6.36523 24.2116 6.2352L23.3043 5.81466C23.2516 5.92826 23.1956 6.04078 23.1372 6.15482L24.0273 6.6106ZM23.3949 6.36881C23.9796 6.98595 24.9196 7.38842 26.1379 7.64752L26.346 6.6694C25.1977 6.42519 24.4975 6.07854 24.1209 5.68105L23.3949 6.36881ZM26.1379 7.64752C26.4256 7.70868 26.7018 7.74198 26.9645 7.74198V6.74198C26.7852 6.74198 26.5797 6.71911 26.3459 6.66939L26.1379 7.64752ZM26.9645 7.74198C27.7094 7.74198 28.3382 7.47288 28.746 6.88401L27.9239 6.3147C27.7391 6.58145 27.4506 6.74198 26.9645 6.74198V7.74198ZM28.7463 6.88349C29.1802 6.25529 29.2012 5.4303 29.0905 4.68087C28.9771 3.91296 28.7085 3.11282 28.4362 2.44062L27.5094 2.8161C27.7682 3.45504 28.0045 4.17156 28.1012 4.82695C28.2007 5.50081 28.1372 6.00574 27.9235 6.31522L28.7463 6.88349ZM28.3343 2.97381C28.3137 2.99535 28.2953 3.01036 28.2945 3.01104C28.2892 3.01546 28.2851 3.01873 28.2833 3.02013C28.2812 3.02182 28.2794 3.02315 28.2783 3.02398C28.2777 3.02443 28.2772 3.02485 28.2767 3.02522C28.2765 3.02541 28.2762 3.02559 28.276 3.02577C28.2759 3.02585 28.2757 3.02594 28.2756 3.02603C28.2756 3.02607 28.2755 3.02611 28.2754 3.02616C28.2754 3.02618 28.2754 3.0262 28.2754 3.02622C28.2753 3.02623 28.2753 3.02624 28.2753 3.02625C28.2753 3.02626 28.2753 3.02627 28.2753 3.02627C28.2753 3.02628 28.2753 3.02629 27.9759 2.62581C27.6766 2.22532 27.6765 2.22533 27.6765 2.22534C27.6765 2.22534 27.6765 2.22535 27.6765 2.22536C27.6765 2.22537 27.6765 2.22538 27.6765 2.22539C27.6764 2.22541 27.6764 2.22543 27.6764 2.22546C27.6763 2.2255 27.6763 2.22555 27.6762 2.22559C27.6761 2.22569 27.6759 2.22578 27.6758 2.22589C27.6755 2.22609 27.6752 2.22631 27.6749 2.22655C27.6743 2.22703 27.6735 2.22759 27.6727 2.22823C27.6711 2.22942 27.6688 2.23125 27.6659 2.23349C27.6634 2.23543 27.6585 2.2393 27.6526 2.24427C27.6511 2.24549 27.6322 2.261 27.6113 2.28291L28.3343 2.97381ZM27.9759 2.62581C28.4429 2.44723 28.443 2.44742 28.4431 2.44761C28.4431 2.44767 28.4432 2.44786 28.4432 2.44798C28.4433 2.44823 28.4434 2.44846 28.4435 2.44868C28.4437 2.44913 28.4438 2.44955 28.444 2.44993C28.4443 2.45069 28.4445 2.45132 28.4447 2.45182C28.445 2.45282 28.4452 2.45333 28.4452 2.45337C28.4452 2.45343 28.4447 2.45179 28.4437 2.44874C28.4417 2.44232 28.4387 2.43179 28.4361 2.41933C28.429 2.38633 28.4321 2.37667 28.43 2.38951C28.4284 2.39939 28.4227 2.42652 28.4024 2.46032C28.3803 2.49726 28.3475 2.53082 28.308 2.55365C28.2346 2.59608 28.2101 2.56301 28.3298 2.5861L28.5192 1.6042C28.2872 1.55945 28.0308 1.5588 27.8073 1.688C27.5643 1.82854 27.4709 2.05632 27.4429 2.22969C27.4166 2.39215 27.4394 2.54059 27.4581 2.6283C27.4684 2.67618 27.4798 2.71665 27.489 2.74614C27.4936 2.76105 27.4978 2.77358 27.5012 2.78334C27.5029 2.78823 27.5045 2.79246 27.5058 2.79597C27.5064 2.79773 27.507 2.79932 27.5075 2.80072C27.5078 2.80142 27.508 2.80207 27.5083 2.80268C27.5084 2.80299 27.5085 2.80328 27.5086 2.80357C27.5086 2.80371 27.5087 2.80391 27.5087 2.80398C27.5088 2.80418 27.5089 2.80438 27.9759 2.62581ZM28.283 2.5747C30.0425 3.09399 30.2438 4.05967 30.219 3.96211L31.1881 3.71558C31.1375 3.51662 30.7066 2.24734 28.566 1.6156L28.283 2.5747ZM30.2154 3.94688L30.3161 4.40204L31.2925 4.18597L31.1918 3.7308L30.2154 3.94688ZM30.8501 4.7919L31.2941 4.75105L31.2025 3.75526L30.7585 3.79611L30.8501 4.7919ZM31.2938 4.75109C31.8972 4.69601 32.3686 4.70822 32.698 4.7671C33.0628 4.83232 33.1193 4.92936 33.1066 4.9073L33.9747 4.41086C33.7512 4.02008 33.2889 3.85689 32.874 3.78271C32.4235 3.70217 31.8542 3.69578 31.2029 3.75522L31.2938 4.75109ZM33.1067 4.90743C33.101 4.89751 33.127 4.94225 33.1088 5.09848C33.092 5.24281 33.0444 5.42336 32.9722 5.62681C32.8281 6.03286 32.6159 6.44945 32.4783 6.71848L33.3685 7.17391C33.5031 6.91082 33.7453 6.43842 33.9146 5.96123C33.9991 5.72307 34.073 5.46342 34.1021 5.21433C34.1297 4.97714 34.126 4.67522 33.9746 4.41073L33.1067 4.90743ZM26.0317 17.327C25.4377 17.9239 24.9844 18.7493 24.6342 19.624C24.2817 20.5045 24.0203 21.469 23.8271 22.3734C23.4406 24.1823 23.3174 25.7959 23.2961 26.1109L24.2939 26.1782C24.3137 25.885 24.4328 24.3246 24.805 22.5824C24.9911 21.7113 25.2382 20.8059 25.5625 19.9957C25.8892 19.1799 26.2812 18.494 26.7405 18.0324L26.0317 17.327ZM23.295 26.1445C23.2956 26.1692 23.2977 26.1968 23.2981 26.1998C23.2982 26.2009 23.2984 26.2028 23.2985 26.2036C23.2987 26.2049 23.2988 26.2059 23.2988 26.2064C23.299 26.2077 23.2991 26.2088 23.2993 26.2097C23.2995 26.2116 23.2998 26.2136 23.3001 26.2157C23.3007 26.2199 23.3014 26.2248 23.3023 26.2304C23.304 26.2414 23.3064 26.2554 23.3096 26.2717C23.316 26.3041 23.3258 26.3472 23.3405 26.3971C23.3692 26.494 23.4209 26.6314 23.5139 26.768C23.6084 26.9069 23.7536 27.0561 23.9678 27.1482C24.1855 27.2418 24.4313 27.2579 24.6918 27.1997L24.4739 26.2237C24.428 26.234 24.3989 26.2344 24.3836 26.2333C24.3689 26.2323 24.3633 26.2297 24.3629 26.2296C24.3623 26.2293 24.3609 26.2287 24.3578 26.226C24.3543 26.2229 24.3482 26.2166 24.3406 26.2054C24.3238 26.1808 24.3094 26.1472 24.2994 26.1134C24.2948 26.0979 24.2922 26.0857 24.2909 26.0791C24.2903 26.076 24.29 26.0745 24.2901 26.075C24.2902 26.0753 24.2903 26.0761 24.2905 26.0776C24.2906 26.0783 24.2907 26.0792 24.2909 26.0805C24.291 26.081 24.2911 26.0819 24.2912 26.0829C24.2913 26.0834 24.2914 26.0844 24.2915 26.0856C24.2916 26.0863 24.2918 26.0882 24.2919 26.0893C24.2923 26.0923 24.2944 26.1199 24.295 26.1445H23.295ZM24.7072 27.196C24.6992 27.1981 24.6928 27.1995 24.6886 27.2003C24.6848 27.2011 24.682 27.2016 24.683 27.2014C24.6832 27.2014 24.6834 27.2014 24.6839 27.2013C24.6844 27.2012 24.6851 27.201 24.6859 27.2009C24.6874 27.2006 24.6899 27.2001 24.6929 27.1996C24.6987 27.1984 24.7083 27.1965 24.7199 27.1937L24.4851 26.2217C24.4937 26.2196 24.5002 26.2183 24.5029 26.2178C24.5036 26.2176 24.5042 26.2175 24.5046 26.2175C24.5049 26.2174 24.5052 26.2174 24.5052 26.2174C24.5052 26.2174 24.5051 26.2174 24.5051 26.2174C24.505 26.2174 24.5049 26.2174 24.5047 26.2174C24.5045 26.2175 24.5038 26.2176 24.5032 26.2177C24.5009 26.2181 24.4948 26.2192 24.4876 26.2207C24.48 26.2223 24.4701 26.2245 24.4586 26.2274L24.7072 27.196ZM24.7529 27.1845C25.1132 27.0709 25.3823 27.0366 25.567 27.0504C25.7456 27.0637 25.8044 27.1166 25.826 27.1434L26.6048 26.5161C26.3603 26.2126 26.0061 26.0804 25.6414 26.0532C25.2829 26.0264 24.8786 26.0963 24.4521 26.2309L24.7529 27.1845ZM25.8261 27.1435C25.9269 27.2686 25.983 27.4688 25.9758 27.915L26.9757 27.9312C26.9834 27.4512 26.9418 26.9343 26.6047 26.516L25.8261 27.1435ZM26.4757 27.4231H23.7746V28.4231H26.4757V27.4231ZM23.7746 27.4231C23.7533 27.4231 23.7353 27.419 23.712 27.4069C23.6847 27.3928 23.6442 27.3643 23.5895 27.3068L22.8656 27.9967C23.0817 28.2235 23.3773 28.4231 23.7746 28.4231V27.4231ZM23.589 27.3063C23.4804 27.1928 23.3699 27.0003 23.2708 26.7258C23.1739 26.4573 23.0995 26.1428 23.0444 25.8162C22.934 25.1616 22.9093 24.5067 22.916 24.1762L21.9162 24.1562C21.9085 24.5395 21.9361 25.2576 22.0583 25.9825C22.1196 26.3456 22.2065 26.7225 22.3302 27.0653C22.4518 27.4022 22.6212 27.741 22.866 27.9972L23.589 27.3063ZM22.916 24.1747L23.0003 19.2476L22.0004 19.2305L21.9161 24.1576L22.916 24.1747ZM23.0003 19.2476C23.0055 18.9409 22.9411 18.6645 22.7806 18.4448C22.6164 18.2202 22.3946 18.1134 22.2003 18.0693C22.0138 18.027 21.8413 18.0387 21.7281 18.055C21.6689 18.0635 21.619 18.0743 21.5825 18.0834C21.564 18.088 21.5486 18.0922 21.5367 18.0957C21.5307 18.0974 21.5255 18.099 21.5213 18.1003C21.5191 18.101 21.5172 18.1016 21.5155 18.1021C21.5147 18.1024 21.5139 18.1026 21.5132 18.1029C21.5128 18.103 21.5124 18.1031 21.5121 18.1032C21.5119 18.1033 21.5117 18.1034 21.5116 18.1034C21.5114 18.1035 21.5112 18.1035 21.6668 18.5787C21.8224 19.0539 21.8222 19.0539 21.8219 19.054C21.8219 19.054 21.8217 19.0541 21.8215 19.0542C21.8212 19.0543 21.821 19.0543 21.8207 19.0544C21.8202 19.0546 21.8197 19.0547 21.8193 19.0549C21.8184 19.0552 21.8177 19.0554 21.8172 19.0555C21.8161 19.0559 21.8157 19.056 21.816 19.0559C21.8164 19.0558 21.8193 19.055 21.824 19.0538C21.8339 19.0513 21.8503 19.0477 21.8705 19.0448C21.916 19.0382 21.955 19.0391 21.9789 19.0445C21.995 19.0481 21.9826 19.0478 21.9732 19.0349C21.9674 19.027 22.0032 19.0678 22.0004 19.2304L23.0003 19.2476ZM21.9788 18.9694L21.982 18.9669L21.358 18.1854L21.3548 18.188L21.9788 18.9694ZM21.513 18.1014C20.8278 18.3281 19.9847 18.4501 18.9925 18.4501V19.4501C20.0617 19.4501 21.0157 19.3192 21.827 19.0508L21.513 18.1014ZM18.9925 18.4501C15.8512 18.4501 12.3179 17.246 11.4473 16.93L11.1061 17.87C11.9848 18.1889 15.6615 19.4501 18.9925 19.4501V18.4501ZM11.438 16.9267C11.1675 16.8345 10.912 16.805 10.6767 16.8523C10.4339 16.9012 10.2515 17.0243 10.1247 17.169C10.0037 17.3071 9.94124 17.4549 9.90859 17.5585C9.89175 17.612 9.88127 17.6587 9.87475 17.6941C9.87146 17.712 9.86911 17.7274 9.86744 17.7398C9.8666 17.7461 9.86593 17.7516 9.86539 17.7563C9.86512 17.7587 9.86489 17.7609 9.86469 17.7629C9.86458 17.7639 9.86449 17.7649 9.8644 17.7658C9.86436 17.7662 9.86432 17.7666 9.86428 17.7671C9.86426 17.7673 9.86423 17.7676 9.86422 17.7677C9.86419 17.768 9.86416 17.7683 10.362 17.8143C10.8599 17.8602 10.8599 17.8605 10.8599 17.8608C10.8599 17.8609 10.8598 17.8612 10.8598 17.8614C10.8598 17.8618 10.8597 17.8622 10.8597 17.8625C10.8596 17.8633 10.8596 17.864 10.8595 17.8646C10.8594 17.8659 10.8592 17.8671 10.8591 17.8682C10.8589 17.8703 10.8587 17.8719 10.8585 17.873C10.8582 17.8753 10.8581 17.8759 10.8582 17.8751C10.8586 17.8731 10.8598 17.8671 10.8624 17.8591C10.8649 17.8509 10.868 17.8433 10.8713 17.8369C10.8729 17.8339 10.8742 17.8317 10.8753 17.8302C10.8763 17.8286 10.8769 17.828 10.8768 17.828C10.8725 17.833 10.8656 17.8344 10.8739 17.8327C10.8898 17.8295 10.961 17.8206 11.1154 17.8732L11.438 16.9267ZM10.8584 17.7538L10.8577 17.748L9.865 17.8688L9.86571 17.8747L10.8584 17.7538ZM9.86584 17.7414C9.60919 19.638 8.29119 20.7307 6.52705 22.1535L7.15484 22.9319C8.86001 21.5566 10.5385 20.2281 10.8568 17.8755L9.86584 17.7414ZM6.5271 22.1535C5.3335 23.1159 4.9446 24.0773 4.91848 24.8667C4.89318 25.6316 5.21199 26.1407 5.26262 26.2171L6.09639 25.665C6.10381 25.6762 5.90225 25.3739 5.91794 24.8998C5.9328 24.4503 6.14622 23.7452 7.15478 22.932L6.5271 22.1535ZM5.26386 26.219L5.4835 26.5475L6.3148 25.9916L6.09516 25.6631L5.26386 26.219ZM6.0581 26.7436L6.42989 26.619L6.11199 25.6708L5.7402 25.7955L6.0581 26.7436ZM6.42124 26.6218C6.47838 26.6038 6.52003 26.5919 6.55287 26.5845C6.58649 26.5769 6.5964 26.5774 6.59094 26.5774V25.5774C6.41346 25.5774 6.23695 25.6314 6.12064 25.668L6.42124 26.6218ZM6.59094 26.5774C6.63026 26.5774 6.61604 26.5825 6.57839 26.5686C6.55742 26.5608 6.5335 26.5488 6.50959 26.5316C6.48599 26.5146 6.46921 26.4974 6.45883 26.4852L7.2202 25.8369C7.14896 25.7532 7.05342 25.678 6.92519 25.6306C6.80995 25.588 6.69377 25.5774 6.59094 25.5774V26.5774ZM6.45928 26.4857C6.45624 26.4822 6.48551 26.5222 6.51401 26.6427C6.53968 26.7513 6.55485 26.8827 6.55906 27.0128L7.55854 26.9804C7.55276 26.8018 7.53186 26.6016 7.48717 26.4126C7.44531 26.2356 7.36993 26.0122 7.21975 25.8364L6.45928 26.4857ZM7.0588 26.4966H4.332V27.4966H7.0588V26.4966ZM4.77168 26.7585C4.58664 26.4168 4.49408 25.7697 4.50028 24.965C4.50627 24.1875 4.60236 23.3556 4.72109 22.7161L3.7379 22.5336C3.6102 23.2213 3.50682 24.1123 3.50031 24.9573C3.49401 25.7751 3.57592 26.6503 3.89231 27.2347L4.77168 26.7585ZM4.57143 22.9897C5.3884 22.2239 5.81497 21.4708 6.0211 20.6511C6.22064 19.8576 6.2053 19.0235 6.19267 18.1455L5.19277 18.1599C5.20586 19.0695 5.21284 19.7648 5.0513 20.4072C4.89636 21.0233 4.57846 21.6125 3.88756 22.2601L4.57143 22.9897ZM6.19267 18.1453C6.17807 17.1607 6.16077 15.9644 6.38504 14.4192L5.39541 14.2756C5.15896 15.9047 5.17808 17.1685 5.19278 18.1601L6.19267 18.1453ZM6.38507 14.419C6.61815 12.8076 7.14025 11.9995 7.98052 11.5418C8.88494 11.0491 10.2476 10.9043 12.3271 10.9043V9.90426C10.2694 9.90426 8.65912 10.0334 7.50218 10.6636C6.2811 11.3287 5.65337 12.4922 5.39537 14.2758L6.38507 14.419ZM12.3271 10.9043C13.0435 10.9043 13.787 10.9206 14.768 10.9434L14.7912 9.94362C13.8121 9.92091 13.057 9.90426 12.3271 9.90426V10.9043ZM14.7676 10.9433C14.9849 10.9486 15.1964 10.9512 15.4039 10.9512V9.95119C15.2049 9.95119 15.0014 9.94867 14.7916 9.94363L14.7676 10.9433ZM15.4039 10.9512C17.9878 10.9512 19.8564 10.5473 21.2631 9.74322L20.7669 8.87503C19.5693 9.55951 17.8957 9.95119 15.4039 9.95119V10.9512ZM21.2433 9.75395C21.2259 9.7629 21.2109 9.76919 21.2007 9.77321C21.1959 9.77512 21.1921 9.77653 21.1903 9.77716C21.1899 9.77733 21.1895 9.77746 21.1893 9.77754C21.1892 9.77759 21.1891 9.77762 21.189 9.77764C21.1889 9.77767 21.1889 9.77768 21.1889 9.77768C21.1886 9.77777 21.1895 9.77745 21.1902 9.7772C21.1947 9.77558 21.2421 9.75941 21.2943 9.72592L20.7543 8.88426C20.7795 8.86805 20.8024 8.8567 20.8199 8.84896C20.8358 8.84191 20.8487 8.83732 20.8496 8.83702C20.8499 8.8369 20.8504 8.83672 20.8497 8.83695C20.8494 8.83707 20.8484 8.83744 20.8471 8.83789C20.8446 8.83881 20.84 8.84051 20.8343 8.84275C20.8225 8.84741 20.8059 8.85443 20.7867 8.8643L21.2433 9.75395ZM21.0243 9.30509C21.2872 9.73038 21.2873 9.73034 21.2873 9.73029C21.2874 9.73027 21.2874 9.73023 21.2875 9.73019C21.2876 9.73013 21.2877 9.73005 21.2878 9.72998C21.2881 9.72983 21.2883 9.72966 21.2886 9.72949C21.2892 9.72913 21.2899 9.72871 21.2907 9.72823C21.2922 9.72727 21.2941 9.72607 21.2964 9.72463C21.3009 9.72175 21.3069 9.7179 21.3144 9.71306C21.3292 9.7034 21.3498 9.68981 21.3756 9.6722C21.4271 9.63699 21.4995 9.58567 21.5893 9.51747C21.7688 9.38112 22.0178 9.17708 22.3073 8.8992L21.6148 8.17773C21.3554 8.4267 21.136 8.60597 20.9843 8.72122C20.9085 8.77882 20.8497 8.82038 20.8113 8.84658C20.7922 8.85969 20.7781 8.86895 20.7696 8.87445C20.7654 8.87721 20.7626 8.87902 20.7612 8.87991C20.7605 8.88035 20.7601 8.88057 20.7601 8.88055C20.7602 8.88054 20.7603 8.88047 20.7605 8.88034C20.7606 8.88028 20.7607 8.88021 20.7608 8.88012C20.7609 8.88007 20.761 8.88002 20.7611 8.87997C20.7611 8.87994 20.7612 8.8799 20.7612 8.87989C20.7613 8.87984 20.7613 8.8798 21.0243 9.30509ZM21.6277 8.91115C23.9815 11.0162 26.969 12.011 27.956 12.2232L28.1662 11.2456C27.2946 11.0582 24.4828 10.123 22.2944 8.16577L21.6277 8.91115ZM27.9508 12.2221C28.0467 12.2438 28.1383 12.2535 28.2254 12.2535V11.2535C28.2132 11.2535 28.1956 11.2522 28.1714 11.2467L27.9508 12.2221ZM28.2254 12.2535C28.2407 12.2535 28.2545 12.2528 28.2662 12.2519C28.2718 12.2514 28.2764 12.251 28.2796 12.2506C28.2811 12.2505 28.2824 12.2503 28.2833 12.2502C28.2841 12.2501 28.2847 12.2501 28.2847 12.2501C28.2853 12.25 28.2832 12.2502 28.2808 12.2505C28.278 12.2508 28.2738 12.2512 28.2687 12.2516C28.2578 12.2525 28.245 12.2531 28.2308 12.2531V11.2531C28.2154 11.2531 28.2017 11.2538 28.19 11.2547C28.1844 11.2551 28.1798 11.2556 28.1766 11.2559C28.175 11.2561 28.1737 11.2562 28.1729 11.2563C28.1721 11.2564 28.1714 11.2565 28.1714 11.2565C28.1709 11.2566 28.1729 11.2563 28.1754 11.2561C28.1782 11.2558 28.1823 11.2554 28.1875 11.255C28.1983 11.2541 28.2111 11.2535 28.2254 11.2535V12.2535ZM27.7308 11.7533C27.7309 12.1325 27.718 12.4268 27.7053 12.624C27.699 12.7227 27.6927 12.7971 27.6881 12.8457C27.6858 12.87 27.684 12.8878 27.6827 12.8991C27.6821 12.9047 27.6817 12.9086 27.6814 12.9109C27.6813 12.912 27.6812 12.9128 27.6812 12.9131C27.6812 12.9132 27.6812 12.9132 27.6812 12.9132C27.6812 12.9131 27.6812 12.9131 27.6812 12.913C27.6812 12.913 27.6812 12.9129 27.6812 12.9129C27.6812 12.9128 27.6812 12.9128 27.6812 12.9128C27.6812 12.9127 27.6812 12.9127 28.1775 12.9733C28.6739 13.0338 28.6739 13.0338 28.6739 13.0337C28.6739 13.0337 28.6739 13.0337 28.6739 13.0336C28.6739 13.0335 28.6739 13.0334 28.6739 13.0333C28.6739 13.0331 28.674 13.0329 28.674 13.0327C28.6741 13.0322 28.6741 13.0316 28.6742 13.0309C28.6744 13.0295 28.6746 13.0276 28.6749 13.0254C28.6754 13.0208 28.6761 13.0146 28.6769 13.0067C28.6786 12.9909 28.681 12.9683 28.6837 12.9393C28.6892 12.8812 28.6962 12.797 28.7032 12.6883C28.7172 12.4708 28.7309 12.155 28.7308 11.7529L27.7308 11.7533ZM27.6801 12.923C27.3626 16.0671 25.9989 17.3573 26.0443 17.3148L26.7279 18.0446C26.8305 17.9486 28.3296 16.4443 28.675 13.0235L27.6801 12.923ZM25.5596 3.03117L25.5667 3.04027L26.3568 2.42731L26.3497 2.41821L25.5596 3.03117ZM25.9617 2.73379C26.2027 3.17189 26.2025 3.17198 26.2024 3.17207C26.2023 3.1721 26.2022 3.17219 26.202 3.17225C26.2018 3.17236 26.2016 3.17247 26.2014 3.17257C26.2011 3.17278 26.2007 3.17297 26.2004 3.17315C26.1998 3.17349 26.1993 3.17376 26.1989 3.17396C26.1981 3.17436 26.1979 3.17449 26.1981 3.17437C26.1986 3.17413 26.2009 3.17295 26.2048 3.17106C26.2128 3.16722 26.2268 3.16086 26.245 3.15371C26.2837 3.13857 26.3304 3.12439 26.375 3.11834C26.4208 3.11212 26.4421 3.11743 26.4459 3.11873C26.4464 3.11889 26.4448 3.11828 26.4435 3.11725C26.4422 3.11618 26.447 3.11935 26.4557 3.13302L27.2999 2.59705C27.0054 2.13318 26.5378 2.08703 26.2404 2.12743C26.0933 2.14741 25.967 2.18868 25.8806 2.22248C25.8363 2.23981 25.7997 2.2563 25.7728 2.26918C25.7593 2.27566 25.7481 2.28131 25.7393 2.28581C25.735 2.28807 25.7312 2.29004 25.7281 2.2917C25.7266 2.29253 25.7252 2.29328 25.7239 2.29394C25.7233 2.29428 25.7228 2.29459 25.7222 2.29488C25.722 2.29503 25.7217 2.29517 25.7215 2.2953C25.7213 2.29537 25.7212 2.29547 25.7211 2.2955C25.7209 2.2956 25.7207 2.29569 25.9617 2.73379ZM26.4218 3.07019C26.7021 3.69313 26.9512 4.36554 27.0868 4.93265C27.1548 5.21719 27.1899 5.45759 27.1922 5.64288C27.1933 5.73464 27.1862 5.80272 27.176 5.85031C27.1656 5.8984 27.1548 5.91258 27.1574 5.90888L27.9785 6.47955C28.1569 6.22293 28.1955 5.90354 28.1921 5.63047C28.1885 5.34323 28.1367 5.02352 28.0594 4.70016C27.9043 4.05147 27.6294 3.31689 27.3338 2.65989L26.4218 3.07019ZM27.1576 5.90856C27.2057 5.8394 27.2446 5.87453 27.1019 5.88311C26.9802 5.89043 26.8195 5.87086 26.6529 5.8356L26.4458 6.81393C26.648 6.85672 26.9098 6.89648 27.1619 6.88131C27.393 6.8674 27.7567 6.79823 27.9783 6.47987L27.1576 5.90856ZM26.6529 5.83562C25.0582 5.49787 24.9443 5.0422 24.9617 5.09303L24.0155 5.41661C24.1734 5.87835 24.7453 6.45377 26.4458 6.81391L26.6529 5.83562ZM24.9625 5.09531C24.9622 5.0944 24.9619 5.0933 24.9617 5.09151C24.9615 5.08958 24.9614 5.08619 24.9618 5.08108L23.9663 4.98687C23.9538 5.11926 23.9646 5.2654 24.0147 5.41434L24.9625 5.09531ZM24.927 5.22287C25.3972 4.07061 25.9042 3.44044 26.2879 3.09746L25.6214 2.35192C25.1062 2.81253 24.5186 3.57675 24.0011 4.84508L24.927 5.22287ZM34.899 4.12837C34.3805 3.24215 33.3417 2.91475 32.0233 2.91475V3.91475C33.235 3.91475 33.7942 4.22027 34.0359 4.63338L34.899 4.12837ZM32.0233 2.91475C31.8543 2.91475 31.6774 2.9206 31.4954 2.93084L31.5516 3.92926C31.7191 3.91983 31.8768 3.91475 32.0233 3.91475V2.91475ZM31.9679 3.20101C31.5019 2.29658 30.1857 0.771487 26.7288 0.504399L26.6517 1.50143C29.7841 1.74344 30.7813 3.08138 31.079 3.65909L31.9679 3.20101ZM26.7268 0.504248L26.687 0.501335L26.614 1.49867L26.6538 1.50158L26.7268 0.504248ZM26.6101 0.501629L26.5696 0.504907L26.6503 1.50165L26.6908 1.49837L26.6101 0.501629ZM26.5682 0.505027C26.3332 0.524735 24.4759 0.78922 23.0183 3.74302L23.9151 4.18553C25.2022 1.57713 26.7304 1.49493 26.6518 1.50153L26.5682 0.505027ZM23.0662 3.6649C22.8989 3.8888 22.7196 4.2278 22.6346 4.63103L23.6131 4.83719C23.6646 4.59294 23.7759 4.3857 23.8672 4.26365L23.0662 3.6649ZM22.6601 4.54737C22.6433 4.58894 22.6225 4.63958 22.6027 4.69111L23.5357 5.05096C23.552 5.00853 23.5675 4.97105 23.5877 4.92085L22.6601 4.54737ZM22.6031 4.69006C22.035 6.15303 21.3949 7.19741 20.3471 7.89565C19.2919 8.59891 17.7488 9.00025 15.2707 9.00025V10.0003C17.8371 10.0003 19.6103 9.58843 20.9017 8.72779C22.2006 7.86215 22.9374 6.59192 23.5353 5.05201L22.6031 4.69006ZM15.2707 9.00025C15.0805 9.00025 14.8854 8.99811 14.6849 8.99381L14.6635 9.99358C14.8708 9.99803 15.0729 10.0003 15.2707 10.0003V9.00025ZM14.686 8.99384C13.9015 8.9753 13.0038 8.95364 12.2102 8.95364V9.95364C12.9896 9.95364 13.8746 9.97495 14.6624 9.99356L14.686 8.99384ZM12.2102 8.95364C11.004 8.95364 9.84432 8.98866 8.80561 9.18702C7.76206 9.3863 6.80795 9.75615 6.03579 10.4494L6.70384 11.1935C7.29621 10.6617 8.05922 10.3476 8.99318 10.1693C9.93199 9.98999 11.0102 9.95364 12.2102 9.95364V8.95364ZM6.04116 10.4446C5.78426 10.6687 5.5702 10.9243 5.39092 11.1801L6.20978 11.7541C6.3552 11.5466 6.517 11.3565 6.69848 11.1982L6.04116 10.4446ZM5.99235 11.0054L5.93018 10.9796L5.54618 11.9029L5.60835 11.9288L5.99235 11.0054ZM5.9282 10.9787C4.55196 10.4133 3.16982 9.09379 3.22262 7.087L2.22297 7.0607C2.1557 9.61757 3.93033 11.239 5.54816 11.9037L5.9282 10.9787ZM3.22262 7.08706C3.26695 5.41004 4.33688 4.69049 5.21069 4.54887L5.05071 3.56175C3.76742 3.76973 2.28166 4.8404 2.22297 7.06063L3.22262 7.08706ZM5.21112 4.5488C6.24847 4.37974 7.14356 4.90344 7.41274 5.68252L8.35791 5.35596C7.90237 4.03747 6.4798 3.32885 5.05027 3.56182L5.21112 4.5488ZM7.4128 5.68269C7.53298 6.03016 7.70582 6.34318 7.94525 6.55972C8.19873 6.78897 8.5409 6.91584 8.91383 6.81566L8.6544 5.8499C8.65315 5.85023 8.65883 5.84951 8.66302 5.85072C8.66424 5.85108 8.6477 5.84671 8.61602 5.81805C8.54691 5.75556 8.44727 5.61429 8.35786 5.3558L7.4128 5.68269ZM8.91618 6.81502C9.48603 6.65897 9.88046 6.02476 9.75756 5.3428L8.77341 5.52016C8.79253 5.62623 8.76967 5.70993 8.73564 5.76753C8.7181 5.79723 8.69826 5.81883 8.68089 5.83287C8.67236 5.83978 8.66513 5.84429 8.65985 5.84707C8.65456 5.84986 8.65184 5.85059 8.65205 5.85053L8.91618 6.81502ZM9.75753 5.34265C9.68015 4.91404 9.43817 4.42799 9.09984 3.98451C8.75648 3.53444 8.28807 3.09388 7.7186 2.77192L7.22645 3.64244C7.66376 3.88967 8.03286 4.2346 8.30479 4.59106C8.58176 4.9541 8.73287 5.29561 8.77344 5.52031L9.75753 5.34265ZM7.7182 2.7717C6.54312 2.10878 5.23781 2.08079 3.88773 2.6342L4.26702 3.55948C5.376 3.1049 6.35567 3.15119 7.22685 3.64266L7.7182 2.7717ZM3.88749 2.6343C2.57342 3.17374 1.63384 4.04793 1.15295 5.24469L2.08084 5.61754C2.44545 4.71017 3.16135 4.01337 4.26725 3.55938L3.88749 2.6343ZM1.15296 5.24465C0.643221 6.51295 0.706441 8.08018 1.28567 9.45024L2.20674 9.06083C1.71595 7.89997 1.68254 6.60854 2.08083 5.61758L1.15296 5.24465ZM1.28589 9.45074C1.47185 9.88926 1.94902 10.6207 2.58842 11.3112C3.22855 12.0024 4.08609 12.7126 5.05769 13.0368L5.37423 12.0882C4.63031 11.84 3.90964 11.2661 3.32211 10.6317C2.73384 9.99646 2.3339 9.36069 2.20653 9.06033L1.28589 9.45074ZM4.75212 12.3758C4.65801 12.6096 4.5906 12.8133 4.54639 12.9597C4.52425 13.033 4.50782 13.0924 4.49669 13.1344C4.49112 13.1555 4.48686 13.1722 4.48388 13.1842C4.48238 13.1902 4.4812 13.195 4.48034 13.1986C4.4799 13.2004 4.47954 13.2019 4.47926 13.2031C4.47912 13.2037 4.479 13.2042 4.4789 13.2046C4.47885 13.2048 4.4788 13.205 4.47876 13.2052C4.47874 13.2053 4.47872 13.2054 4.4787 13.2055C4.47869 13.2055 4.47868 13.2056 4.47868 13.2056C4.47866 13.2056 4.47865 13.2057 4.96551 13.3196C5.45236 13.4335 5.45235 13.4335 5.45234 13.4336C5.45233 13.4336 5.45232 13.4336 5.45231 13.4337C5.4523 13.4337 5.45229 13.4338 5.45228 13.4338C5.45225 13.4339 5.45224 13.434 5.45222 13.4341C5.45219 13.4342 5.45218 13.4342 5.45219 13.4342C5.45221 13.4341 5.45229 13.4338 5.45245 13.4331C5.45277 13.4318 5.45339 13.4293 5.45429 13.4256C5.45611 13.4183 5.45911 13.4065 5.46334 13.3905C5.47179 13.3586 5.48514 13.3103 5.50372 13.2487C5.54095 13.1254 5.59877 12.9505 5.6798 12.7492L4.75212 12.3758ZM4.48148 13.1942C4.39961 13.5103 4.32984 13.8476 4.27703 14.2131L5.26675 14.3561C5.31413 14.0282 5.37651 13.7269 5.44953 13.445L4.48148 13.1942ZM4.27707 14.2128C4.0298 15.9173 4.0495 17.2199 4.06448 18.2445L5.06437 18.2299C5.04951 17.213 5.03155 15.9774 5.26671 14.3564L4.27707 14.2128ZM4.06448 18.2444C4.0774 19.1479 4.08198 19.7335 3.9506 20.2357C3.8287 20.7016 3.57967 21.1224 3.00204 21.6348L3.66562 22.3829C4.35659 21.77 4.73548 21.1866 4.91803 20.4888C5.0911 19.8273 5.07667 19.0898 5.06437 18.2301L4.06448 18.2444ZM3.00817 21.6294L2.87495 21.7438L3.52627 22.5026L3.65949 22.3882L3.00817 21.6294ZM2.71182 22.0179L2.67558 22.1861L3.65317 22.3967L3.6894 22.2285L2.71182 22.0179ZM2.67449 22.1914C2.62917 22.4133 2.42269 23.4784 2.38389 24.6875C2.3645 25.2919 2.3864 25.9476 2.49758 26.5596C2.60766 27.1656 2.81278 27.7714 3.19169 28.2375L3.96765 27.6067C3.73836 27.3246 3.57672 26.9051 3.48147 26.3808C3.38731 25.8626 3.3653 25.2831 3.38338 24.7195C3.41954 23.5925 3.61361 22.5905 3.65426 22.3915L2.67449 22.1914ZM3.22457 28.2741L3.38123 28.4321L4.09143 27.7281L3.93476 27.5701L3.22457 28.2741ZM3.73633 28.5801H7.92618V27.5801H3.73633V28.5801ZM8.42133 28.1496L8.48172 27.7192L7.49142 27.5802L7.43103 28.0107L8.42133 28.1496ZM8.48251 27.7133C8.49396 27.6241 8.54074 27.2288 8.49903 26.7506C8.45845 26.2854 8.32775 25.661 7.91889 25.182L7.15831 25.8312C7.36617 26.0747 7.46887 26.4484 7.50281 26.8375C7.53561 27.2135 7.49802 27.5285 7.49064 27.5861L8.48251 27.7133ZM7.91855 25.1816C7.52143 24.7174 6.96457 24.5053 6.35291 24.5448L6.41728 25.5427C6.74278 25.5217 6.98381 25.6272 7.15866 25.8316L7.91855 25.1816ZM6.88461 25.0218C6.87895 24.8928 6.916 24.4585 7.71233 23.817L7.08494 23.0382C6.11849 23.8169 5.86211 24.5312 5.88558 25.0657L6.88461 25.0218ZM7.7122 23.8171C9.29582 22.542 11.1007 21.1095 11.6687 18.7348L10.6961 18.5022C10.2197 20.4938 8.71364 21.7269 7.08506 23.0381L7.7122 23.8171ZM11.0186 19.0909C12.3404 19.5493 15.6807 20.5901 18.8399 20.5901V19.5901C15.8561 19.5901 12.6476 18.5974 11.3462 18.1461L11.0186 19.0909ZM18.8399 20.5901C19.7675 20.5901 20.6238 20.5017 21.3927 20.314L21.1555 19.3425C20.4806 19.5073 19.7063 19.5901 18.8399 19.5901V20.5901ZM20.7742 19.8196L20.6992 24.1779L21.6991 24.1951L21.774 19.8368L20.7742 19.8196ZM20.6992 24.1766C20.6959 24.3427 20.6884 25.1338 20.83 26.0435C20.9677 26.9278 21.2626 28.0415 21.9428 28.7536L22.6659 28.0629C22.2117 27.5874 21.951 26.743 21.8181 25.8897C21.6892 25.0618 21.6963 24.3359 21.699 24.1964L20.6992 24.1766ZM21.9428 28.7537C22.3759 29.2069 22.948 29.5 23.5964 29.5V28.5C23.2663 28.5 22.9439 28.3539 22.6658 28.0628L21.9428 28.7537ZM23.5964 29.5H27.1873V28.5H23.5964V29.5ZM27.6793 29.0889L27.7617 28.6326L26.7776 28.4548L26.6952 28.9111L27.6793 29.0889ZM27.7607 28.6381C27.7796 28.5397 27.8525 28.1132 27.8246 27.5851C27.7971 27.0654 27.6685 26.3797 27.2241 25.8259L26.4442 26.4517C26.6996 26.7701 26.8034 27.211 26.826 27.6379C26.8481 28.0564 26.7889 28.3962 26.7787 28.4493L27.7607 28.6381ZM27.224 25.8257C26.9005 25.4228 26.3032 24.9702 25.3169 24.9702V25.9702C25.9519 25.9702 26.2783 26.2451 26.4443 26.4519L27.224 25.8257ZM25.3169 24.9702C25.0968 24.9702 24.8672 24.993 24.6306 25.0362L24.8102 26.02C24.9963 25.986 25.1653 25.9702 25.3169 25.9702V24.9702ZM25.2177 25.5796C25.3188 24.6041 25.5245 23.2219 25.8686 21.9235C26.2199 20.598 26.6902 19.4623 27.2651 18.8855L26.5567 18.1796C25.7784 18.9607 25.2563 20.3306 24.902 21.6673C24.5406 23.0311 24.3276 24.4677 24.2231 25.4765L25.2177 25.5796ZM27.25 18.8999C27.4553 18.7104 30.0186 16.1786 29.5065 10.1574L28.5101 10.2422C28.7519 13.0847 28.2673 15.0601 27.7277 16.3226C27.4574 16.9553 27.1714 17.4131 26.9515 17.7142C26.8415 17.8648 26.7479 17.9763 26.681 18.051C26.6475 18.0883 26.6207 18.1164 26.6019 18.1355C26.5925 18.145 26.5851 18.1523 26.5799 18.1573C26.5774 18.1598 26.5753 18.1618 26.5739 18.1631C26.5732 18.1638 26.5727 18.1643 26.5723 18.1646C26.5719 18.165 26.5717 18.1652 26.5717 18.1652L27.25 18.8999ZM29.5083 10.1963L29.5069 9.99347L28.5069 10.0005L28.5083 10.2033L29.5083 10.1963ZM29.067 10.4933C29.7022 10.4164 30.7481 10.2456 31.7536 9.87858C32.7395 9.51873 33.7954 8.93128 34.3061 7.9522L33.4195 7.48972C33.0872 8.1268 32.3331 8.60251 31.4107 8.93921C30.508 9.26872 29.5475 9.42785 28.9468 9.5006L29.067 10.4933ZM34.3061 7.95225C34.5982 7.39237 34.913 6.74983 35.0763 6.11198C35.2401 5.47254 35.2704 4.76418 34.8992 4.12871L34.0357 4.63304C34.2195 4.94767 34.2391 5.35036 34.1076 5.86395C33.9757 6.37912 33.7107 6.93158 33.4195 7.48967L34.3061 7.95225Z" fill="white"/>
</svg>
