<?xml version="1.0" encoding="UTF-8"?>
<svg width="338px" height="97px" viewBox="0 0 338 97" version="1.1" xmlns="http://www.w3.org/2000/svg" xmlns:xlink="http://www.w3.org/1999/xlink">
    <!-- Generator: Sketch 61.2 (89653) - https://sketch.com -->
    <title>Group 6</title>
    <desc>Created with Sketch.</desc>
    <defs>
        <path d="M228.439481,0.5 C207.991066,0.5 192.955329,15.8682653 192.955329,35.6275634 C192.955329,55.5863161 208.392221,70.1562966 227.63717,70.3558678 C242.672907,70.3558678 251.093668,63.9690063 257.508651,55.1871737 L246.482131,47.4031972 C244.878678,46.2056534 242.672907,46.4053412 241.269446,47.8024562 C237.861377,51.1953999 234.053322,53.3909163 228.239488,53.3909163 C218.816422,53.3909163 212.201446,45.4073686 212.201446,35.4279922 L212.201446,35.2283044 C212.201446,25.4484992 218.816422,17.4649515 228.239488,17.4649515 C233.451003,17.4649515 237.260228,19.4608967 240.668298,22.6542692 C242.271751,24.2509554 244.477522,24.2509554 246.080976,23.0535282 L257.107495,14.4711502 C251.093668,6.28805462 242.271751,0.5 228.439481,0.5 Z M97.5297419,68.9587528 L83.0955045,68.9587528 L83.0955045,1.89713834 L97.5297419,1.89713834 L109.157293,1.89713834 C133.214706,1.89713834 147.246969,15.6686941 147.246969,35.0287332 L147.246969,35.228421 C147.246969,54.5884601 133.013543,68.9587528 108.756254,68.9587528 L97.5297419,68.9587528 Z M128.002021,35.4279922 C128.002021,46.20577 120.584734,52.3929437 109.357754,52.3929437 L101.739655,52.3929437 L101.739655,18.2633529 L109.357754,18.2633529 C120.584734,18.2633529 128.002021,24.4506432 128.002021,35.228421 L128.002021,35.4279922 Z M164.488478,1.89713834 L179.524215,1.89713834 L179.524215,15.2695516 L160.47809,15.2695516 L160.47809,5.8889122 C160.47809,3.69344241 162.282706,1.89713834 164.488478,1.89713834 Z M160.879246,19.8600391 L179.123059,19.8600391 L179.123059,68.7591815 L164.889633,68.7591815 C162.683862,68.7591815 160.879246,66.9629241 160.879246,64.7674077 L160.879246,19.8600391 Z M266.128235,35.6275634 C266.128235,16.2675243 281.766291,0.5 302.414699,0.5 C323.063107,0.5 338.5,15.8682653 338.5,35.2283044 L338.5,35.4279922 C338.5,54.5884601 322.863114,70.3558678 302.213536,70.3558678 C281.565128,70.1562966 266.128235,54.7880313 266.128235,35.6275634 Z M319.655038,35.6275634 C319.655038,25.8477582 312.638907,17.2653803 302.414699,17.2653803 C292.190491,17.2653803 285.374353,25.4484992 285.374353,35.2283044 L285.374353,35.4279922 C285.374353,45.0082261 292.390484,53.5904875 302.614692,53.5904875 C312.8389,53.3909163 319.655038,45.2077973 319.655038,35.6275634 Z M19.545072,15.2695516 L19.545072,1.89713834 L4.50948699,1.89713834 C2.30426505,1.89713834 0.5,3.69344241 0.5,5.8889122 L0.5,15.2695516 L19.545072,15.2695516 Z M0.5,19.8601557 L0.5,64.7674077 C0.5,66.9629241 2.30426505,68.7591815 4.50948699,68.7591815 L19.544955,68.7591815 L19.544955,69.1584405 L37.9886443,69.1584405 L42.5995958,69.1584405 C43.8023612,69.1584405 45.0052436,69.7571542 45.8072042,70.7551268 L66.6565412,97.5 L66.8570021,68.9588693 L37.9886443,32.2346197 L37.9886443,62.3724366 L19.545072,62.3724366 L19.545072,19.8601557 L0.5,19.8601557 Z M36.9862228,1.89716165 L64.6516983,1.89716165 L64.6516983,37.2242496 L36.9862228,1.89716165 Z" id="path-1"></path>
        <filter x="-1.3%" y="-4.6%" width="102.7%" height="109.3%" filterUnits="objectBoundingBox" id="filter-2">
            <feGaussianBlur stdDeviation="3" in="SourceAlpha" result="shadowBlurInner1"></feGaussianBlur>
            <feOffset dx="3" dy="3" in="shadowBlurInner1" result="shadowOffsetInner1"></feOffset>
            <feComposite in="shadowOffsetInner1" in2="SourceAlpha" operator="arithmetic" k2="-1" k3="1" result="shadowInnerInner1"></feComposite>
            <feColorMatrix values="0 0 0 0 0.0784313725   0 0 0 0 0.0784313725   0 0 0 0 0.117647059  0 0 0 1 0" type="matrix" in="shadowInnerInner1" result="shadowMatrixInner1"></feColorMatrix>
            <feGaussianBlur stdDeviation="3" in="SourceAlpha" result="shadowBlurInner2"></feGaussianBlur>
            <feOffset dx="-3" dy="-3" in="shadowBlurInner2" result="shadowOffsetInner2"></feOffset>
            <feComposite in="shadowOffsetInner2" in2="SourceAlpha" operator="arithmetic" k2="-1" k3="1" result="shadowInnerInner2"></feComposite>
            <feColorMatrix values="0 0 0 0 0.0823529412   0 0 0 0 0.180392157   0 0 0 0 0.933333333  0 0 0 1 0" type="matrix" in="shadowInnerInner2" result="shadowMatrixInner2"></feColorMatrix>
            <feMerge>
                <feMergeNode in="shadowMatrixInner1"></feMergeNode>
                <feMergeNode in="shadowMatrixInner2"></feMergeNode>
            </feMerge>
        </filter>
    </defs>
    <g id="UI-Design" stroke="none" stroke-width="1" fill="none" fill-rule="evenodd">
        <g id="Home-screen-Copy" transform="translate(-726.000000, -85.000000)">
            <g id="Group-6" transform="translate(725.500000, 84.500000)">
                <g id="Shape">
                    <use fill="#1529CE" fill-rule="evenodd" xlink:href="#path-1"></use>
                    <use fill="black" fill-opacity="1" filter="url(#filter-2)" xlink:href="#path-1"></use>
                </g>
            </g>
        </g>
    </g>
</svg>