<?xml version="1.0" encoding="UTF-8"?>
<svg width="154px" height="40px" viewBox="0 0 154 40" version="1.1" xmlns="http://www.w3.org/2000/svg" xmlns:xlink="http://www.w3.org/1999/xlink">
    <!-- Generator: Sketch 61.2 (89653) - https://sketch.com -->
    <title>Combined Shape Copy</title>
    <desc>Created with Sketch.</desc>
    <g id="VIEWPORT" stroke="none" stroke-width="1" fill="none" fill-rule="evenodd">
        <g id="Consignes" transform="translate(-677.000000, -45.000000)" fill="#FFFFFF">
            <g id="Group-3" transform="translate(32.000000, 32.000000)">
                <path d="M692.580511,13 C692.95705,13 693.318022,13.1484159 693.584334,13.4125984 C693.850226,13.6767805 694,14.0350893 694,14.4086982 L694,14.4086982 L694,38.6101472 C694,38.9837561 693.850226,39.3420399 693.584334,39.6062428 C693.318022,39.870404 692.95705,40.0188537 692.580511,40.0188537 L692.580511,40.0188537 L687.258477,40.0188537 L687.258477,19.6913039 L680.715448,19.6913039 L680.715448,28.8548909 L670.936664,16.3456603 L664.769921,16.3456603 L664.769921,36.6661447 L671.284384,36.6661447 L671.284384,27.0306504 L681.467642,40.0188537 L671.284384,53 L671.284384,43.3645057 L659.419279,43.3645057 C659.042866,43.3645057 658.681893,43.2160977 658.415708,42.9518948 C658.149522,42.6877336 658,42.3294081 658,41.9557991 L658,41.9557991 L658,14.4086982 C658,14.0350893 658.149522,13.6767805 658.415708,13.4125984 C658.681893,13.1484159 659.042866,13 659.419279,13 L659.419279,13 Z M652,22.5 L652,40.5 L646.472323,40.5 C646.081839,40.5 645.707347,40.3331759 645.431233,40.036252 C645.155119,39.7393282 645,39.3365954 645,38.9166531 L645,38.9166531 L645,22.5 L652,22.5 Z M737.5,22.5 L737.5,40.5 L731.972072,40.5 C731.778352,40.5 731.586545,40.4588292 731.407373,40.3787931 C731.228201,40.2987983 731.065491,40.1815438 730.928814,40.0337818 C730.792138,39.8860198 730.683792,39.7106733 730.610286,39.5177881 C730.536396,39.3248617 730.498877,39.1182254 730.5,38.9097364 L730.5,38.9097364 L730.5,22.5 L737.5,22.5 Z M709.352631,13 C718.935051,13 724.5,18.556348 724.5,26.3803008 L724.5,26.3803008 L724.5,26.4225525 C724.5,34.2112677 718.858279,40 709.198257,40 L709.198257,40 L699,40 L699,13 Z M785.045797,13 C793.067247,13 799,18.9718508 799,26.4225525 L799,26.4225525 L799,26.5 C799,33.9577576 792.989454,40 784.968423,40 C776.947391,40 771,34.028191 771,26.5704334 L771,26.5704334 L771,26.5 C771,19.0422424 777.017656,13 785.045797,13 Z M756.974746,13 C762.196326,13 765.558987,15.2252288 767.861054,18.4433586 L767.861054,18.4433586 L763.700891,21.6896685 C763.401211,21.9295963 763.026714,22.0529209 762.645229,22.0374323 C762.264155,22.0219437 761.900757,21.8686437 761.620809,21.6051699 C761.018161,20.9612851 760.291777,20.45016 759.486876,20.1036905 C758.681564,19.7572209 757.814589,19.5827546 756.940215,19.5911877 C753.362557,19.5911877 750.838505,22.6684586 750.838505,26.4499407 L750.838505,26.4499407 L750.838505,26.5274256 C750.838505,30.4215864 753.362557,33.4636634 756.940215,33.4636634 C757.854053,33.4771482 758.759669,33.291869 759.597046,32.9201834 C760.434012,32.5484979 761.183417,31.9990896 761.793875,31.3088641 C762.054502,31.0312793 762.404745,30.8585247 762.780475,30.8222871 C763.156205,30.7860495 763.532347,30.888834 763.839426,31.1116867 L763.839426,31.1116867 L768,34.1396945 C765.586941,37.5127107 762.334861,39.9984909 756.67671,39.9984909 C754.935361,40.0252516 753.206345,39.6958571 751.592843,39.0298457 C749.979341,38.3638343 748.51424,37.3748576 747.285101,36.1218226 C746.055551,34.8687877 745.08745,33.3773696 744.437527,31.7362837 C743.787604,30.0952396 743.469426,28.338135 743.502313,26.5696749 L743.502313,26.5696749 L743.502313,26.4992455 C743.502313,18.9362814 749.236514,13 756.974746,13 Z M784.968423,19.492941 C781.031936,19.492941 778.393251,22.6831108 778.393251,26.4225525 L778.393251,26.4225525 L778.393251,26.5 C778.393251,30.2464976 781.074178,33.507059 785.045797,33.507059 C789.017835,33.507059 791.656101,30.316931 791.656101,26.5704334 L791.656101,26.5704334 L791.656101,26.5352376 C791.656101,22.7535442 788.90491,19.492941 784.968423,19.492941 Z M709.471317,19.6338078 L706.440682,19.6338078 L706.440682,33.3661922 L709.471317,33.3661922 C713.916222,33.3661922 716.870085,30.8943847 716.870085,26.5352376 L716.870085,26.5352376 L716.870085,26.4577483 C716.870085,22.1408529 713.916222,19.6338078 709.471317,19.6338078 L709.471317,19.6338078 Z M652,13 L652,18 L645,18 L645,14.4863109 C645,14.0921174 645.155119,13.7140671 645.431233,13.4353304 C645.707347,13.156593 646.081839,13 646.472323,13 L646.472323,13 L652,13 Z M737.5,13 L737.5,18 L730.5,18 L730.5,14.4928308 C730.498877,14.2970944 730.536396,14.1031204 730.610286,13.9220394 C730.683792,13.7409583 730.792138,13.5763413 730.928814,13.4376338 C731.065491,13.2989244 731.228201,13.1888605 731.407373,13.1137591 C731.586545,13.0386576 731.778352,13 731.972072,13 L731.972072,13 L737.5,13 Z" id="Combined-Shape-Copy"></path>
            </g>
        </g>
    </g>
</svg>