<?xml version="1.0" encoding="UTF-8"?>
<svg width="3242px" height="930px" viewBox="0 0 3242 930" version="1.1" xmlns="http://www.w3.org/2000/svg" xmlns:xlink="http://www.w3.org/1999/xlink">
    <!-- Generator: Sketch 61.2 (89653) - https://sketch.com -->
    <title>Group 6 Copy</title>
    <desc>Created with Sketch.</desc>
    <defs>
        <path d="M2186.33076,0 C1990.19537,0 1845.97685,147.345224 1845.97685,336.790041 C1845.97685,528.147155 1994.04314,667.83872 2178.63522,669.752134 C2322.85374,669.752134 2403.62329,608.517277 2465.15398,524.320325 L2359.39074,449.690447 C2344.01087,438.208842 2322.85374,440.123374 2309.39215,453.518394 C2276.70291,486.048679 2240.17713,507.098476 2184.41248,507.098476 C2094.02911,507.098476 2030.58015,430.555183 2030.58015,334.876626 L2030.58015,332.962094 C2030.58015,239.196951 2094.02911,162.653659 2184.41248,162.653659 C2234.39986,162.653659 2270.93687,181.790041 2303.6261,212.406911 C2319.00597,227.715346 2340.1631,227.715346 2355.54297,216.234858 L2461.30621,133.950203 C2403.62329,55.4937195 2319.00597,0 2186.33076,0 Z M930.681725,656.357114 L792.23262,656.357114 L792.23262,13.3952439 L930.681725,13.3952439 L1042.20989,13.3952439 C1272.96176,13.3952439 1407.55525,145.431809 1407.55525,331.048679 L1407.55525,332.963211 C1407.55525,518.580081 1271.03227,656.357114 1038.36324,656.357114 L930.681725,656.357114 Z M1222.96317,334.876626 C1222.96317,438.209959 1151.81866,497.530285 1044.13265,497.530285 L971.062013,497.530285 L971.062013,170.308435 L1044.13265,170.308435 C1151.81866,170.308435 1222.96317,229.629878 1222.96317,332.963211 L1222.96317,334.876626 Z M1572.9309,13.3952439 L1717.14942,13.3952439 L1717.14942,141.60498 L1534.4644,141.60498 L1534.4644,51.6668902 C1534.4644,30.6175406 1551.77376,13.3952439 1572.9309,13.3952439 Z M1538.31217,185.61687 L1713.30165,185.61687 L1713.30165,654.443699 L1576.77867,654.443699 C1555.62154,654.443699 1538.31217,637.22185 1538.31217,616.172053 L1538.31217,185.61687 Z M2547.83059,336.790041 C2547.83059,151.173171 2697.82637,0 2895.88004,0 C3093.93371,0 3242,147.345224 3242,332.962094 L3242,334.876626 C3242,518.580081 3092.01543,669.752134 2893.95055,669.752134 C2695.89688,667.83872 2547.83059,520.493496 2547.83059,336.790041 Z M3061.24448,336.790041 C3061.24448,243.024898 2993.94774,160.740244 2895.88004,160.740244 C2797.81235,160.740244 2732.43388,239.196951 2732.43388,332.962094 L2732.43388,334.876626 C2732.43388,426.728354 2799.73062,509.01189 2897.79832,509.01189 C2995.86601,507.098476 3061.24448,428.641768 3061.24448,336.790041 Z M182.674921,141.60498 L182.674921,13.3952439 L38.4578604,13.3952439 C17.3059979,13.3952439 0,30.6175406 0,51.6668902 L0,141.60498 L182.674921,141.60498 Z M0,185.617988 L0,616.172053 C0,637.22185 17.3059979,654.443699 38.4578604,654.443699 L182.673799,654.443699 L182.673799,658.271646 L359.580428,658.271646 L403.807366,658.271646 C415.34395,658.271646 426.881656,664.01189 434.573834,673.580081 L634.554753,930 L636.477517,656.358232 L359.580428,304.259756 L359.580428,593.209959 L182.674921,593.209959 L182.674921,185.617988 L0,185.617988 Z M349.965487,13.3954674 L615.324869,13.3954674 L615.324869,352.098476 L349.965487,13.3954674 Z" id="path-1"></path>
        <filter x="-0.1%" y="-0.5%" width="100.3%" height="101.0%" filterUnits="objectBoundingBox" id="filter-2">
            <feGaussianBlur stdDeviation="3" in="SourceAlpha" result="shadowBlurInner1"></feGaussianBlur>
            <feOffset dx="3" dy="3" in="shadowBlurInner1" result="shadowOffsetInner1"></feOffset>
            <feComposite in="shadowOffsetInner1" in2="SourceAlpha" operator="arithmetic" k2="-1" k3="1" result="shadowInnerInner1"></feComposite>
            <feColorMatrix values="0 0 0 0 0.0784313725   0 0 0 0 0.0784313725   0 0 0 0 0.117647059  0 0 0 1 0" type="matrix" in="shadowInnerInner1" result="shadowMatrixInner1"></feColorMatrix>
            <feGaussianBlur stdDeviation="3" in="SourceAlpha" result="shadowBlurInner2"></feGaussianBlur>
            <feOffset dx="-3" dy="-3" in="shadowBlurInner2" result="shadowOffsetInner2"></feOffset>
            <feComposite in="shadowOffsetInner2" in2="SourceAlpha" operator="arithmetic" k2="-1" k3="1" result="shadowInnerInner2"></feComposite>
            <feColorMatrix values="0 0 0 0 0.0823529412   0 0 0 0 0.180392157   0 0 0 0 0.933333333  0 0 0 1 0" type="matrix" in="shadowInnerInner2" result="shadowMatrixInner2"></feColorMatrix>
            <feMerge>
                <feMergeNode in="shadowMatrixInner1"></feMergeNode>
                <feMergeNode in="shadowMatrixInner2"></feMergeNode>
            </feMerge>
        </filter>
    </defs>
    <g id="UI-Design" stroke="none" stroke-width="1" fill="none" fill-rule="evenodd">
        <g id="Group-6-Copy">
            <g id="Shape">
                <use fill="#1529CE" fill-rule="evenodd" xlink:href="#path-1"></use>
                <use fill="black" fill-opacity="1" filter="url(#filter-2)" xlink:href="#path-1"></use>
            </g>
        </g>
    </g>
</svg>