<svg width="370" height="96" viewBox="0 0 370 96" fill="none" xmlns="http://www.w3.org/2000/svg">
<path d="M113.332 0H34.5107C33.616 0 32.758 0.355419 32.1253 0.98807C31.4927 1.62072 31.1372 2.47878 31.1372 3.37348V69.3419C31.1372 70.2366 31.4927 71.0947 32.1253 71.7273C32.758 72.36 33.616 72.7154 34.5107 72.7154H62.713V95.79L86.9178 64.7034L62.713 33.5999V56.6745H47.2287V8.01202H61.8865L85.1298 37.9685V16.024H100.682V64.7034H113.332C114.227 64.7034 115.085 64.3479 115.718 63.7153C116.35 63.0826 116.706 62.2246 116.706 61.3299V3.37348C116.706 2.47878 116.35 1.62072 115.718 0.98807C115.085 0.355419 114.227 0 113.332 0V0Z" fill="#152EEE"/>
<path d="M0 3.84577V12.9373H18.2843V0H3.84577C2.82581 0 1.84762 0.405178 1.1264 1.1264C0.405178 1.84762 0 2.82581 0 3.84577H0Z" fill="#152EEE"/>
<path d="M0 60.8238C0 61.8438 0.405178 62.822 1.1264 63.5432C1.84762 64.2644 2.82581 64.6696 3.84577 64.6696H18.2843V20.9493H0V60.8238Z" fill="#152EEE"/>
<path d="M154.489 0H129.542V64.6696H154.117C177.395 64.6696 190.99 50.8046 190.99 32.1493V32.0481C190.99 13.3084 177.58 0 154.489 0ZM172.604 32.4192C172.604 42.8601 165.486 48.7805 154.775 48.7805H147.472V15.8891H154.775C165.486 15.8891 172.604 21.8939 172.604 32.2336V32.4192Z" fill="#152EEE"/>
<path d="M203.826 60.807C203.823 61.3134 203.921 61.8153 204.114 62.2839C204.306 62.7524 204.589 63.1783 204.946 63.5372C205.303 63.8961 205.728 64.1809 206.196 64.3752C206.664 64.5696 207.165 64.6696 207.671 64.6696H222.11V20.9493H203.826V60.807Z" fill="#152EEE"/>
<path d="M203.826 3.86264V12.9373H222.11V1.77909e-10H207.671C207.165 -4.87111e-06 206.664 0.100025 206.196 0.294347C205.728 0.488669 205.303 0.773455 204.946 1.13236C204.589 1.49126 204.306 1.9172 204.114 2.38574C203.921 2.85428 203.823 3.35618 203.826 3.86264Z" fill="#152EEE"/>
<path d="M279.442 43.8553C277.957 45.5086 276.134 46.8246 274.098 47.7149C272.061 48.6052 269.858 49.049 267.635 49.0167C258.932 49.0167 252.792 41.73 252.792 32.4023V32.2167C252.792 23.1589 258.932 15.7879 267.635 15.7879C269.762 15.7677 271.871 16.1856 273.83 17.0155C275.788 17.8454 277.555 19.0697 279.021 20.612C279.702 21.2431 280.586 21.6103 281.513 21.6474C282.441 21.6845 283.352 21.3891 284.081 20.8144L294.201 13.0385C288.601 5.3301 280.421 0 267.719 0C248.895 0 234.946 14.2192 234.946 32.3348V32.5035C234.866 36.7395 235.64 40.9483 237.221 44.8791C238.802 48.81 241.157 52.3824 244.148 55.3838C247.138 58.3852 250.702 60.7541 254.627 62.3494C258.552 63.9447 262.758 64.7337 266.994 64.6696C280.758 64.6696 288.669 58.7154 294.539 50.636L284.418 43.383C283.671 42.8492 282.756 42.603 281.842 42.6898C280.928 42.7766 280.076 43.1904 279.442 43.8553Z" fill="#152EEE"/>
<path d="M336.032 0C316.837 0 302.449 14.4722 302.449 32.3348V32.5035C302.449 50.3661 316.669 64.6696 335.847 64.6696C355.025 64.6696 369.396 50.1974 369.396 32.3348V32.1493C369.396 14.3036 355.211 0 336.032 0ZM351.837 32.5035C351.837 41.477 345.529 49.1179 336.032 49.1179C326.536 49.1179 320.126 41.3083 320.126 32.3348V32.1493C320.126 23.1927 326.435 15.5517 335.847 15.5517C345.259 15.5517 351.837 23.3614 351.837 32.4192V32.5035Z" fill="#152EEE"/>
</svg>
