<svg width="289" height="84" viewBox="0 0 289 84" fill="none" xmlns="http://www.w3.org/2000/svg">
<path fill-rule="evenodd" clip-rule="evenodd" d="M194.895 0C177.411 0 164.555 13.1835 164.555 30.1338C164.555 47.2552 177.754 59.7539 194.209 59.9251C207.065 59.9251 214.265 54.4462 219.75 46.9128L210.322 40.2354C208.951 39.2081 207.065 39.3794 205.865 40.5779C202.951 43.4885 199.695 45.3719 194.724 45.3719C186.667 45.3719 181.011 38.5233 181.011 29.9626V29.7913C181.011 21.4018 186.667 14.5532 194.724 14.5532C199.18 14.5532 202.437 16.2654 205.351 19.0048C206.722 20.3745 208.608 20.3745 209.979 19.3473L219.407 11.985C214.265 4.96522 206.722 0 194.895 0ZM82.9633 58.7266H70.6216V1.19852H82.9633H92.9052C113.475 1.19852 125.473 13.0123 125.473 29.6201V29.7914C125.473 46.3992 113.303 58.7266 92.5623 58.7266H82.9633ZM109.018 29.9626C109.018 39.2082 102.676 44.5158 93.0766 44.5158H86.5629V15.2381H93.0766C102.676 15.2381 109.018 20.5458 109.018 29.7914V29.9626ZM140.215 1.19852H153.071V12.6699H136.786V4.62282C136.786 2.73946 138.329 1.19852 140.215 1.19852ZM137.129 16.6078H152.728V58.5554H140.558C138.672 58.5554 137.129 57.0145 137.129 55.1311V16.6078ZM227.12 30.1338C227.12 13.526 240.491 0 258.146 0C275.801 0 289 13.1835 289 29.7913V29.9626C289 46.3992 275.63 59.9251 257.974 59.9251C240.319 59.7539 227.12 46.5704 227.12 30.1338ZM272.887 30.1338C272.887 21.7443 266.888 14.382 258.146 14.382C249.404 14.382 243.576 21.4018 243.576 29.7913V29.9626C243.576 38.1809 249.575 45.5431 258.317 45.5431C267.059 45.3719 272.887 38.3521 272.887 30.1338ZM16.2841 12.6699V1.19852H3.42823C1.5427 1.19852 0 2.73946 0 4.62282V12.6699H16.2841ZM0 16.6079V55.1311C0 57.0145 1.5427 58.5554 3.42823 58.5554H16.284V58.8979H32.0539H35.9964C37.0248 58.8979 38.0533 59.4115 38.739 60.2676L56.5658 83.2104L56.7372 58.7267L32.0539 27.2232V53.0766H16.2841V16.6079H0ZM31.1968 1.19854H54.8516V31.5035L31.1968 1.19854Z" fill="white"/>
</svg>
