<svg width="60" height="91" viewBox="0 0 60 91" fill="none" xmlns="http://www.w3.org/2000/svg">
    <path fill-rule="evenodd" clip-rule="evenodd" d="M54.8047 38.5761C56.2219 36.5211 57.4811 34.3072 58.4258 31.9359C59.3704 29.4064 59.8425 26.7187 60 23.7147C60 20.0785 59.3704 16.7586 57.9532 13.9128C56.5365 11.0669 54.6472 8.53746 52.1284 6.48207C49.6091 4.42669 46.6181 2.84582 42.9971 1.73904C39.3761 0.632682 35.4401 0 31.0319 0C26.7809 0 23.0028 0.474511 19.3818 1.58087C15.7604 2.68765 12.6123 4.26852 9.93593 6.16615C7.10204 8.22112 4.89736 10.5928 3.16602 13.4387C1.74928 15.81 0.489641 19.6044 0.0171193 23.7147C-0.140388 25.1379 0.804241 26.7187 2.22098 26.7187H15.7604C16.8629 26.7187 17.8076 25.9279 18.1226 24.8215C18.7518 21.8175 20.0114 19.7626 22.0582 18.3394C24.577 16.6004 27.2534 15.81 30.2448 15.81C33.7083 15.81 36.3847 16.7586 38.274 18.6558C40.1632 20.5526 41.1078 22.9243 41.1078 25.612C41.1078 28.6155 40.1632 30.9877 38.274 33.0426C36.3847 35.098 34.1808 37.153 31.662 39.0506C30.0873 40.157 28.6706 41.4219 27.2534 42.8446C25.6792 44.2677 24.4195 45.8486 23.3178 47.5881C22.0582 49.3267 21.1131 51.3821 20.4839 53.5952C20.0114 55.1765 19.6964 56.9156 19.5393 58.9705C19.3818 60.2355 20.4839 61.5 21.9007 61.5H34.9675C36.2272 61.5 37.1722 60.5518 37.3297 59.2869C37.4864 57.2315 38.274 55.3347 39.3761 53.7534C40.7928 51.6984 42.525 49.8012 44.5713 48.2199C45.3176 47.5455 46.1347 46.871 46.9722 46.1797C47.9015 45.4126 48.8559 44.6247 49.7666 43.7932C51.6558 42.2119 53.2305 40.4733 54.8047 38.5761ZM17.5 80.5004C17.5 87.1818 22.5001 91 28.75 91C34.9995 91 40 87.341 40 80.5004C40 73.6594 34.9995 70 28.75 70C22.5001 70 17.5 73.8186 17.5 80.5004Z" fill="white"/>
</svg>
