<?xml version="1.0" encoding="UTF-8"?>
<svg width="52px" height="51px" viewBox="0 0 52 51" version="1.1" xmlns="http://www.w3.org/2000/svg" xmlns:xlink="http://www.w3.org/1999/xlink">
    <!-- Generator: Sketch 61.2 (89653) - https://sketch.com -->
    <title>noun_Download_3560756</title>
    <desc>Created with Sketch.</desc>
    <g id="UI-Design" stroke="none" stroke-width="1" fill="none" fill-rule="evenodd">
        <g id="Home-screen-collecte" transform="translate(-1232.000000, -458.000000)" fill="#FFFFFF" fill-rule="nonzero">
            <g id="Bouton" transform="translate(1184.000000, 418.000000)">
                <g id="noun_Download_3560756" transform="translate(48.000000, 40.000000)">
                    <path d="M25.0714286,35.8888889 C25.6853863,35.8883178 26.2740008,35.6301381 26.7078642,35.1711111 L37.6071429,23.6540404 L34.3342716,20.1956566 L27.3871393,27.5365657 L27.3871393,0 L22.7557178,0 L22.7557178,27.5365657 L15.8085855,20.1956566 L12.5357143,23.6540404 L23.434993,35.1711111 C23.8688564,35.6301381 24.4574708,35.8883178 25.0714286,35.8888889 L25.0714286,35.8888889 Z" id="Path"></path>
                    <path d="M26.0164742,51 C36.3879148,50.9937538 45.7252398,44.6257958 49.6430593,34.88691 C53.5608787,25.1480243 51.2807286,13.9733104 43.8735095,6.61111111 L40.4141208,10.1946321 C46.3886532,16.133716 48.2261718,25.1483651 45.0633234,33.003071 C41.9004751,40.8577768 34.3660197,45.9910592 26.000001,45.9910592 C17.6339822,45.9910592 10.0995268,40.8577768 6.93667848,33.003071 C3.77383012,25.1483651 5.61134874,16.133716 11.5858812,10.1946321 L8.1264924,6.61111111 C0.714986256,13.9775701 -1.56311624,25.1604233 2.36316848,34.902378 C6.28945321,44.6443326 15.6390327,51.0073306 26.0164742,51 L26.0164742,51 Z" id="Path"></path>
                </g>
            </g>
        </g>
    </g>
</svg>