<svg width="314" height="314" viewBox="0 0 314 314" fill="none" xmlns="http://www.w3.org/2000/svg">
    <path fill-rule="evenodd" clip-rule="evenodd" d="M253.078 171.143L242.269 157.517C241.501 156.55 240.074 156.438 239.166 157.275L226.377 169.055C225.651 169.723 225.604 170.855 226.271 171.582C226.939 172.31 228.071 172.358 228.798 171.688L238.784 162.486C237.158 182.361 228.399 200.805 213.913 214.695C198.68 229.301 178.674 237.354 157.574 237.372C156.709 237.372 155.915 237.952 155.751 238.803C155.53 239.948 156.4 240.948 157.502 240.948C179.553 240.948 200.465 232.541 216.384 217.277C231.376 202.903 240.493 183.853 242.301 163.308L250.278 173.368C250.893 174.142 252.018 174.272 252.791 173.656C253.563 173.042 253.692 171.917 253.078 171.143Z" fill="white"/>
    <path fill-rule="evenodd" clip-rule="evenodd" d="M157.267 70.5381C134.863 70.5673 113.725 79.2229 97.7356 94.9193C82.6218 109.756 73.7114 129.304 72.4026 150.299C72.402 150.316 72.3817 150.323 72.3716 150.31L64.1841 140.501C63.5511 139.743 62.4228 139.642 61.6647 140.275C60.9079 140.909 60.8067 142.036 61.4397 142.793L72.6467 156.213C73.4035 157.121 74.7713 157.194 75.621 156.372L88.1893 144.221C88.8984 143.534 88.9181 142.404 88.2327 141.694C87.5468 140.983 86.4142 140.963 85.7038 141.65L75.9699 151.066C75.958 151.077 75.9378 151.068 75.9384 151.052C77.0751 130.738 85.6324 111.808 100.238 97.4698C115.583 82.4071 135.876 74.1111 157.38 74.1111C158.392 74.1111 159.208 73.2691 159.165 72.2472C159.124 71.2723 158.242 70.5369 157.267 70.5381Z" fill="white"/>
    <ellipse cx="216.394" cy="99.6088" rx="44.6062" ry="44.6088" stroke="white" stroke-width="3"/>
    <ellipse cx="96.1074" cy="213.888" rx="44.6062" ry="44.6088" stroke="white" stroke-width="3"/>
    <rect x="83.0764" y="200.354" width="26.5632" height="27.066" fill="#FFF"/>
    <rect x="203" y="86" width="26.5632" height="27.066" fill="#FFF"/>
    <circle cx="157" cy="157" r="156" stroke="white" stroke-width="1.5" stroke-linecap="round"/>
</svg>
