<?xml version="1.0" encoding="UTF-8"?>
<svg width="180px" height="248px" viewBox="0 0 180 248" version="1.1" xmlns="http://www.w3.org/2000/svg" xmlns:xlink="http://www.w3.org/1999/xlink">
    <!-- Generator: Sketch 61.2 (89653) - https://sketch.com -->
    <title>Group</title>
    <desc>Created with Sketch.</desc>
    <g id="VIEWPORT" stroke="none" stroke-width="1" fill="none" fill-rule="evenodd">
        <g id="Consignes" transform="translate(-99.000000, -82.000000)">
            <g id="Group" transform="translate(100.000000, 85.000000)">
                <g id="noun_north_952291" transform="translate(32.000000, 44.000000)" stroke="#FFFFFF" stroke-width="3">
                    <ellipse id="Oval" cx="38" cy="37.5" rx="38" ry="37.5"></ellipse>
                </g>
                <path d="M93.3636364,138 L45.6363636,138 C38.1363636,138 32,144.146341 32,151.658537 L32,264.341463 C32,271.853659 38.1363636,278 45.6363636,278 L93.3636364,278 C100.863636,278 107,271.853659 107,264.341463 L107,151.658537 C107,144.146341 100.863636,138 93.3636364,138 Z M103,264.769231 C103,270.396154 98.41,275 92.8,275 L45.2,275 C39.59,275 35,270.396154 35,264.769231 L35,152.230769 C35,146.603846 39.59,142 45.2,142 L48.6,142 C49.45,142 50.3,142.852564 50.3,143.705128 L50.3,145.410256 C50.3,147.285897 51.83,148.820513 53.7,148.820513 L84.3,148.820513 C86.17,148.820513 87.7,147.285897 87.7,145.410256 L87.7,143.705128 C87.7,142.852564 88.55,142 89.4,142 L92.8,142 C98.41,142 103,146.603846 103,152.230769 L103,264.769231 Z" id="Shape" fill="#FFFFFF" fill-rule="nonzero" transform="translate(70.000000, 207.500000) rotate(-270.000000) translate(-70.000000, -207.500000) "></path>
                <path id="Line-Copy" d="M169.731153,192.142483 L169.807363,192.264608 L178.807363,208.264608 C179.213509,208.986645 178.957429,209.901218 178.235392,210.307363 C177.555828,210.689618 176.705713,210.485264 176.269445,209.857933 L176.192637,209.735392 L169.999,198.724 L170,221 C170,221.828427 169.328427,222.5 168.5,222.5 C167.720304,222.5 167.079551,221.905112 167.006867,221.14446 L167,221 L166.999,198.727 L160.807363,209.735392 C160.425109,210.414956 159.592482,210.68177 158.893882,210.372202 L158.764608,210.307363 C158.085044,209.925109 157.81823,209.092482 158.127798,208.393882 L158.192637,208.264608 L167.192637,192.264608 C167.742199,191.287609 169.113142,191.246901 169.731153,192.142483 Z" fill="#FFFFFF" fill-rule="nonzero"></path>
                <path id="Line" d="M70.7311526,-1.85751677 L70.8073633,-1.73539186 L79.8073633,14.2646081 C80.213509,14.986645 79.9574287,15.9012176 79.2353919,16.3073633 C78.5558278,16.6896181 77.705713,16.4852643 77.2694446,15.8579333 L77.1926367,15.7353919 L70.999,4.725 L71,28 C71,28.8284271 70.3284271,29.5 69.5,29.5 C68.7203039,29.5 68.0795513,28.9051119 68.0068666,28.14446 L68,28 L67.999,4.728 L61.8073633,15.7353919 C61.4251085,16.4149559 60.5924825,16.6817696 59.8938824,16.3722017 L59.7646081,16.3073633 C59.0850441,15.9251085 58.8182304,15.0924825 59.1277983,14.3938824 L59.1926367,14.2646081 L68.1926367,-1.73539186 C68.7421988,-2.71239115 70.113142,-2.75309945 70.7311526,-1.85751677 Z" fill="#FFFFFF" fill-rule="nonzero"></path>
            </g>
        </g>
    </g>
</svg>