<svg width="233" height="206" viewBox="0 0 233 206" fill="none" xmlns="http://www.w3.org/2000/svg">
    <path fill-rule="evenodd" clip-rule="evenodd" d="M93.9091 37H139.091C146.191 37 152 42.839 152 49.9756V157.024C152 164.161 146.191 170 139.091 170H93.9091C86.8091 170 81 164.161 81 157.024V49.9756C81 42.839 86.8091 37 93.9091 37ZM138.4 167C143.68 167 148 162.638 148 157.308V50.6923C148 45.3615 143.68 41 138.4 41H135.2C134.4 41 133.6 41.8077 133.6 42.6154V44.2308C133.6 46.0077 132.16 47.4615 130.4 47.4615H101.6C99.84 47.4615 98.4 46.0077 98.4 44.2308V42.6154C98.4 41.8077 97.6 41 96.8 41H93.6C88.32 41 84 45.3615 84 50.6923V157.308C84 162.638 88.32 167 93.6 167H138.4Z" fill="white"/>
    <path fill-rule="evenodd" clip-rule="evenodd" d="M231.887 121.846L218.837 105.431C217.911 104.266 216.188 104.131 215.092 105.139L199.652 119.33C198.775 120.135 198.718 121.499 199.524 122.374C200.33 123.252 201.697 123.309 202.574 122.502L214.63 111.416C212.668 135.359 202.094 157.579 184.605 174.312C166.214 191.908 142.062 201.608 116.59 201.63C115.545 201.631 114.586 202.329 114.388 203.354C114.122 204.733 115.172 205.938 116.503 205.938C143.124 205.938 168.37 195.81 187.588 177.423C205.687 160.106 216.693 137.158 218.876 112.407L228.507 124.526C229.249 125.459 230.607 125.615 231.541 124.873C232.472 124.133 232.628 122.777 231.887 121.846Z" fill="white"/>
    <path fill-rule="evenodd" clip-rule="evenodd" d="M116.218 0.648439C89.171 0.683591 63.652 11.1109 44.3491 30.0199C26.1029 47.8937 15.3458 71.4428 13.7657 96.7352C13.765 96.7553 13.7406 96.7632 13.7284 96.7481L3.84397 84.9312C3.07981 84.018 1.71757 83.896 0.802451 84.6593C-0.111226 85.4226 -0.233432 86.7807 0.53072 87.6925L14.0605 103.86C14.9741 104.953 16.6254 105.04 17.6512 104.051L32.8243 89.4121C33.6804 88.5856 33.7042 87.224 32.8767 86.3682C32.0486 85.5116 30.6813 85.4879 29.8237 86.3158L18.0724 97.6585C18.0581 97.6721 18.0336 97.6606 18.0343 97.6413C19.4067 73.1696 29.7375 50.3651 47.3705 33.0925C65.8949 14.9468 90.3938 4.95279 116.355 4.95279C117.577 4.95279 118.562 3.9384 118.51 2.70735C118.46 1.53298 117.396 0.647004 116.218 0.648439Z" fill="white"/>
</svg>
