<svg width="178" height="261" viewBox="0 0 178 261" fill="none" xmlns="http://www.w3.org/2000/svg">
    <path fill-rule="evenodd" clip-rule="evenodd" d="M97 46C98.3638 44.7773 99.9066 43.3801 101.5 41.8861C101.347 41.6216 101.193 41.3212 101.044 41C99.5416 42.4217 97.7564 43.9957 97 45.9998V46ZM133.999 160.701C133.913 157.156 129.033 155.63 126.365 154.565C122.069 152.849 116.71 150.709 113.721 147.5C114.479 154.581 115.047 160.858 115.329 165.677C115.38 166.557 115.521 167.612 115.253 168.472C114.65 170.406 112.448 171.233 110.096 172.115C107.931 172.928 105.595 173.805 105.108 175.888C104.627 177.945 105.839 179.426 107.14 180.844C110.72 184.745 118.088 190.368 120.372 191.907C123.185 193.701 123.461 193.486 123.059 189.757C122.105 181.545 125.677 172.534 130.894 166.09C132.206 164.469 134.055 163.022 133.999 160.701ZM126.724 134C123.036 134.757 113.424 137.377 114.027 142.237C114.616 146.981 122.517 150.684 127.529 152.706C129.817 153.629 132.43 154.532 134.29 156.252C135.773 157.622 136.309 159.743 135.829 155.438C135.47 152.22 134.145 148.722 132.549 145.281C130.784 141.475 128.804 137.638 126.724 134ZM140.395 133.515C137.637 132.523 132.127 133.184 129 133.669C130.715 136.664 132.346 139.741 133.865 142.839C134.285 143.695 134.024 143.638 134.909 143.132C137.118 141.87 140.012 139.379 141.364 137.158C142.233 135.732 142.467 134.259 140.395 133.515ZM102.5 67.5C104.332 76.2917 107.234 94.6874 109.868 113.867C111.007 122.165 112.097 130.615 113.03 138.5C115.664 134.716 121.573 133.026 125.871 132.076C131.21 130.894 137.537 130.256 141 131.343C138.221 123.48 132.278 112.429 125.668 101.509C117.294 87.6768 107.896 74.1132 102.5 67.5ZM91.4871 167C80.2237 167.824 68.0484 169.593 63.1953 171.517C59.6115 172.938 58.6239 174.291 59.1194 175.521C61.5201 181.482 78.7155 183.843 84.1249 189.525C84.6186 190.043 85.038 190.593 85.3536 191.174C86.1142 192.573 85.613 193.265 86.8077 191.203C87.263 190.416 87.6961 189.569 88.1016 188.652C90.2616 183.768 91.6498 176.928 91.4871 167V167ZM110.522 96.3271C110.309 95.46 111.677 95.1478 111.89 96.0148C114.316 105.832 116.239 116.256 117.988 126.22C118.14 127.098 116.757 127.32 116.605 126.442C114.86 116.507 112.942 106.117 110.522 96.3271ZM65.5004 121.41C62.6554 138.484 60.6952 156.016 59.5 171C60.3058 170.46 61.3181 169.939 62.5625 169.441C67.7203 167.377 80.5874 165.502 92.1902 164.691C97.4416 164.324 107.982 163.586 113 165.203C112.246 153.339 109.883 133.39 107.255 114.232C104.129 91.4346 100.637 69.7997 99.0493 64.3128C90.6797 67.9938 83.5654 60.2216 90.0595 52.0432C86.7034 51.6002 84.1277 54.6218 82.1614 58.532C74.8529 73.0655 68.2914 104.66 65.5004 121.41ZM56.9303 171.792C57.8577 159.895 59.2755 146.309 61.245 132.573C62.4916 123.878 62.593 123.777 60.6216 132.466C59.7678 136.228 58.9588 140.001 58.2058 143.785C53.0054 169.917 50.9187 194.451 58.2644 204.84C60.6433 208.204 61.7389 207.78 64.3003 206.788C69.6179 204.728 78.6185 200.592 82.3155 196.177C84.1096 194.035 83.6543 192.286 82.3506 190.907C77.029 185.278 60.0261 183.655 57.0302 176.163C56.4901 174.813 56.8182 173.231 56.9303 171.792ZM105 172.5C106.207 171.587 107.744 170.977 109.219 170.391C110.126 170.031 111.001 169.684 111.679 169.283C113.184 168.394 113.678 167.44 111.682 167.038C109.607 166.62 107.152 166.543 105.014 166.5L105 172.5ZM112.467 62.0728C112.15 61.3926 111.626 60.7564 110.929 60.2051C109.933 59.4159 108.598 58.812 107.014 58.5C105.3 60.1244 103.462 61.8132 101.5 63.1065C103.837 64.4663 108.019 66.9222 110.789 66.4376C112.557 66.1284 113.739 64.8018 112.467 62.0728ZM114.531 60.5C114.581 60.5955 114.63 60.6921 114.675 60.7895C115.801 62.7839 115.675 65.1376 114 66.8328C114.649 66.971 115.203 67.0295 115.668 66.9857C117.525 66.81 117.881 64.2289 117.136 62.8102C116.698 61.9775 115.871 61.1671 114.531 60.5ZM164.68 2.10821C155.827 7.71261 149.489 10.904 138.829 11.823C131.751 12.4333 104.027 12.2214 100.813 14.4836C95.9464 17.9095 87.6769 25.6725 84.2838 30.4681C81.8028 33.9745 80.5024 44.4197 80.1011 48.763C79.8972 50.9698 80.1534 53.4317 81.3373 55.3564C82.7697 53.0118 84.4725 51.1213 86.5061 50.1945C86.4769 48.7246 87.2351 42.2562 91.0079 38.3747C92.7004 36.866 98.7906 30.8964 100.652 29.624C101.884 28.7842 103.164 30.6574 101.932 31.497C101.746 31.6245 101.565 31.7592 101.382 31.8933C100.917 32.236 95.0855 37.5593 92.3941 40.1335C90.097 42.3673 88.8757 48.4342 88.8522 49.5912C89.7904 49.5249 90.7881 49.6526 91.8496 50.0095C92.5583 49.3001 93.3206 48.6447 94.0784 47.988C94.0742 43.9351 96.2918 41.9077 99.0498 39.3871C99.9676 38.5481 99.9423 38.8785 99.6958 37.7595C99.3743 36.2998 101.596 35.8116 101.918 37.2712C102.126 38.2161 102.522 39.2689 102.967 40.1335C105.331 37.9348 107.706 35.5912 109.683 33.3411C111.798 31.2285 114.206 26.4684 114.312 26.0575C114.74 24.6034 116.803 25.0301 116.362 26.5686C115.509 29.4934 113.314 32.643 111.39 34.8326C106.94 39.8949 100.622 45.3397 96.7206 48.7018C95.2223 49.9927 93.6823 51.2464 92.3941 52.7555C86.3186 59.8732 92.7755 65.9831 100.571 60.8676C102.704 59.4687 104.733 57.6064 106.664 55.8046C110.173 52.5291 114.936 47.7649 119.453 46.0824C122.462 44.9615 126.722 45.8997 128.391 45.9962C133.411 46.2867 138.869 46.2547 143.566 43.3505C144.833 42.5689 146.024 44.4954 144.757 45.2769C138.765 48.9818 132.022 48.5238 126.121 48.1232C124.334 48.002 121.926 47.5774 120.244 48.2039C116.586 49.5668 112.618 53.3647 109.757 56.0229C109.009 56.7175 108.971 56.4822 109.906 56.8428C110.477 57.0633 111.011 57.3185 111.504 57.6041C117.803 51.3626 121.887 51.7466 126.492 52.0102C132.742 52.5602 137.787 51.7466 142.653 49.8884C147.475 48.0466 151.792 45.1708 155.783 42.0323C157.651 40.5628 171.399 30.0464 176.323 27.3736C177.632 26.6612 178.717 28.6498 177.407 29.362C170.582 33.0665 164.635 37.7611 158.642 42.6454C154.094 46.3518 149.135 49.8434 143.461 52.0102C137.815 54.1669 133.735 54.0719 126.241 53.8811C122.617 53.8811 119.453 53.1304 114.424 58.0949C114.733 58.2092 115.026 58.3293 115.304 58.4544C117.356 59.3788 118.646 60.6078 119.356 61.9127C120.934 64.8142 119.699 69.1843 116.015 69.5207C114.695 69.6414 113.1 69.2808 111.102 68.6546C109.069 68.8049 106.666 67.922 104.811 67.1068C110.459 74.2136 119.399 87.1517 127.356 100.277C134.8 112.557 141.42 125.045 143.748 133.159C144.345 135.241 144.104 136.756 143.229 138.25C141.78 140.725 138.583 143.479 136.166 144.917C134.732 145.769 134.909 145.058 135.628 146.762C136.806 149.557 137.716 152.366 138.02 155.052C138.78 161.758 136.082 163.643 132.742 167.793C127.946 173.751 124.607 182.073 125.487 189.601C125.941 193.476 125.185 195.097 123.758 195.504C122.445 195.878 120.889 194.977 119.265 193.89C116.591 192.099 109.447 186.721 105.574 182.462C103.742 180.448 102.434 178.57 102.799 175.725L102.823 166.349C100.094 166.363 97.0397 166.478 93.8571 166.678C94.0377 177.057 92.577 184.256 90.3018 189.436C87.9184 194.862 84.6558 198.077 81.433 200.4C76.8053 204.035 70.8084 206.852 65.3611 208.961C61.6406 210.402 60.0494 211.018 56.6447 206.204C48.8593 195.197 50.9041 170.041 56.2126 143.374C60.2192 123.249 71.1912 75.547 80.1281 57.5583C78.0786 55.0702 77.5544 51.6882 77.8436 48.5589C78.2945 43.6789 79.6189 33.1312 82.4264 29.1633C85.9659 24.1607 94.4338 16.199 99.5068 12.6281C103.543 9.7866 130.783 10.2365 138.634 9.5593C148.913 8.6729 154.927 5.59397 163.462 0.19075C164.723 -0.60793 165.941 1.30953 164.68 2.10821Z" fill="white"/>
    <path d="M12.571 151.511C12.1832 150.939 11.4058 150.791 10.8347 151.178L1.52702 157.497C0.955862 157.885 0.807191 158.663 1.19496 159.234C1.58273 159.805 2.3601 159.954 2.93126 159.566L11.2047 153.949L16.8216 162.222C17.2094 162.794 17.9868 162.942 18.5579 162.554C19.1291 162.167 19.2778 161.389 18.89 160.818L12.571 151.511ZM102.524 239.521C102.792 238.884 102.493 238.152 101.857 237.884L91.4871 233.521C90.8508 233.253 90.1179 233.552 89.8502 234.188C89.5824 234.825 89.8812 235.557 90.5175 235.825L99.7349 239.703L95.8566 248.921C95.5889 249.557 95.8877 250.29 96.524 250.558C97.1603 250.825 97.8932 250.527 98.1609 249.89L102.524 239.521ZM10.309 151.978C9.53503 156.025 7.89075 166.32 7.58451 178.793C7.27864 191.252 8.30449 205.98 12.9337 218.841C17.5719 231.727 25.8736 242.844 40.1481 247.795C54.3683 252.728 74.247 251.445 101.844 240.194L100.9 237.879C73.5666 249.022 54.3685 250.082 40.9674 245.434C27.6205 240.804 19.7563 230.414 15.286 217.994C10.8066 205.55 9.78132 191.173 10.0838 178.855C10.3858 166.551 12.0093 156.396 12.7645 152.447L10.309 151.978Z" fill="white"/>
</svg>
